<svg id="svg" version="1.1" width="400" height="398.9100817438692" viewBox="0 0 400 398.9100817438692" xmlns="http://www.w3.org/2000/svg" xmlns:xlink="http://www.w3.org/1999/xlink" ><g id="svgg"><path id="path0" d="" stroke="none" fill="#000000" fill-rule="evenodd"></path><path id="path1" d="M250.079 248.303 C 250.079 255.659,250.133 258.668,250.199 254.990 C 250.265 251.312,250.265 245.294,250.199 241.617 C 250.133 237.939,250.079 240.948,250.079 248.303 " stroke="none" fill="#555555" fill-rule="evenodd"></path><path id="path2" d="" stroke="none" fill="#ffffff" fill-rule="evenodd"></path><path id="path3" d="" stroke="none" fill="#ff5555" fill-rule="evenodd"></path><path id="path4" d="M181.637 0.399 C 181.637 0.643,179.782 0.798,176.870 0.798 C 174.123 0.798,171.998 0.968,171.856 1.198 C 171.721 1.417,170.196 1.597,168.468 1.597 C 166.208 1.597,165.159 1.765,164.728 2.196 C 164.326 2.597,163.326 2.794,161.693 2.794 C 159.895 2.794,159.196 2.951,159.027 3.393 C 158.862 3.823,158.189 3.992,156.644 3.992 C 155.460 3.992,154.491 4.147,154.491 4.336 C 154.491 4.525,153.392 4.779,152.050 4.901 C 150.707 5.023,149.413 5.317,149.175 5.555 C 148.937 5.793,148.144 5.988,147.413 5.988 C 146.599 5.988,145.994 6.220,145.853 6.587 C 145.698 6.991,145.063 7.186,143.898 7.186 C 142.897 7.186,141.922 7.437,141.574 7.784 C 141.245 8.114,140.334 8.383,139.549 8.383 C 138.765 8.383,138.124 8.540,138.124 8.731 C 138.124 8.923,137.405 9.194,136.527 9.335 C 135.649 9.475,134.930 9.768,134.930 9.985 C 134.930 10.202,134.231 10.379,133.376 10.379 C 132.363 10.379,131.742 10.588,131.592 10.978 C 131.466 11.307,130.908 11.577,130.352 11.577 C 129.720 11.577,129.341 11.801,129.341 12.176 C 129.341 12.608,128.898 12.774,127.745 12.774 C 126.866 12.774,126.148 12.954,126.148 13.174 C 126.148 13.393,125.622 13.573,124.979 13.573 C 124.336 13.573,123.540 13.842,123.211 14.172 C 122.881 14.501,122.234 14.770,121.772 14.770 C 121.311 14.770,120.830 15.040,120.703 15.369 C 120.577 15.699,120.044 15.968,119.518 15.968 C 118.935 15.968,118.563 16.201,118.563 16.567 C 118.563 16.966,118.164 17.166,117.365 17.166 C 116.707 17.166,116.168 17.345,116.168 17.565 C 116.168 17.784,115.753 17.964,115.246 17.964 C 114.739 17.964,113.976 18.228,113.549 18.550 C 113.123 18.873,112.454 19.142,112.063 19.149 C 111.672 19.156,111.249 19.431,111.122 19.760 C 110.996 20.090,110.463 20.359,109.937 20.359 C 109.412 20.359,108.982 20.525,108.982 20.727 C 108.982 20.929,108.443 21.213,107.784 21.357 C 107.126 21.502,106.587 21.786,106.587 21.988 C 106.587 22.190,106.317 22.355,105.988 22.355 C 105.659 22.355,105.389 22.625,105.389 22.954 C 105.389 23.353,104.990 23.553,104.192 23.553 C 103.393 23.553,102.994 23.752,102.994 24.152 C 102.994 24.519,102.621 24.750,102.029 24.750 C 101.499 24.750,101.005 24.885,100.931 25.050 C 100.816 25.309,99.803 25.882,96.178 27.739 C 95.755 27.956,95.409 28.360,95.409 28.638 C 95.409 28.915,94.960 29.142,94.411 29.142 C 93.862 29.142,93.413 29.321,93.413 29.541 C 93.413 29.760,93.144 29.940,92.814 29.940 C 92.485 29.940,92.216 30.210,92.216 30.539 C 92.216 30.912,91.839 31.138,91.218 31.138 C 90.597 31.138,90.220 31.364,90.220 31.737 C 90.220 32.066,89.950 32.335,89.621 32.335 C 89.291 32.335,89.022 32.605,89.022 32.934 C 89.022 33.297,88.651 33.533,88.082 33.533 C 87.565 33.533,86.658 33.982,86.066 34.531 C 85.473 35.080,84.723 35.529,84.398 35.529 C 84.073 35.529,83.704 35.798,83.577 36.128 C 83.451 36.457,83.117 36.727,82.834 36.727 C 82.552 36.727,82.218 36.996,82.091 37.325 C 81.965 37.655,81.598 37.924,81.277 37.924 C 80.955 37.924,79.672 38.912,78.425 40.120 C 77.179 41.327,75.909 42.315,75.604 42.315 C 75.299 42.315,75.050 42.495,75.050 42.715 C 75.050 42.934,74.780 43.114,74.451 43.114 C 74.122 43.114,73.852 43.383,73.852 43.713 C 73.852 44.042,73.583 44.311,73.253 44.311 C 72.924 44.311,72.655 44.581,72.655 44.910 C 72.655 45.240,72.385 45.509,72.056 45.509 C 71.727 45.509,71.457 45.689,71.457 45.908 C 71.457 46.128,71.211 46.307,70.911 46.307 C 70.611 46.307,69.353 47.295,68.117 48.503 C 66.880 49.711,65.688 50.699,65.469 50.699 C 65.249 50.699,65.070 50.968,65.070 51.297 C 65.070 51.627,64.800 51.896,64.471 51.896 C 64.142 51.896,63.872 52.166,63.872 52.495 C 63.872 52.824,63.679 53.094,63.442 53.094 C 62.884 53.094,60.679 55.299,60.679 55.858 C 60.679 56.094,60.409 56.287,60.080 56.287 C 59.750 56.287,59.481 56.557,59.481 56.886 C 59.481 57.216,59.289 57.485,59.053 57.485 C 58.501 57.485,57.485 58.501,57.485 59.053 C 57.485 59.289,57.216 59.481,56.886 59.481 C 56.557 59.481,56.287 59.750,56.287 60.080 C 56.287 60.409,56.018 60.679,55.689 60.679 C 55.359 60.679,55.090 60.948,55.090 61.277 C 55.090 61.607,54.897 61.876,54.662 61.876 C 54.109 61.876,53.094 62.892,53.094 63.445 C 53.094 63.680,52.824 63.872,52.495 63.872 C 52.166 63.872,51.896 64.142,51.896 64.471 C 51.896 64.800,51.627 65.070,51.297 65.070 C 50.968 65.070,50.699 65.242,50.699 65.452 C 50.699 65.663,49.980 66.590,49.102 67.513 C 48.224 68.436,47.505 69.342,47.505 69.526 C 47.505 69.711,46.786 70.559,45.908 71.411 C 45.030 72.263,44.311 73.161,44.311 73.406 C 44.311 73.652,44.042 73.852,43.713 73.852 C 43.383 73.852,43.114 74.122,43.114 74.451 C 43.114 74.780,42.938 75.050,42.722 75.050 C 42.507 75.050,42.218 75.499,42.080 76.048 C 41.942 76.597,41.669 77.046,41.474 77.046 C 41.278 77.046,41.118 77.315,41.118 77.645 C 41.118 77.974,40.848 78.244,40.519 78.244 C 40.190 78.244,39.920 78.513,39.920 78.842 C 39.920 79.172,39.753 79.441,39.548 79.441 C 39.343 79.441,39.053 79.828,38.902 80.302 C 38.752 80.775,38.201 81.559,37.678 82.044 C 37.155 82.529,36.727 83.111,36.727 83.336 C 36.727 83.562,36.457 83.850,36.128 83.977 C 35.798 84.103,35.529 84.490,35.529 84.837 C 35.529 85.184,35.105 85.863,34.586 86.346 C 34.068 86.830,33.517 87.630,33.362 88.124 C 33.207 88.618,32.912 89.022,32.708 89.022 C 32.503 89.022,32.335 89.272,32.335 89.578 C 32.335 89.884,32.066 90.238,31.737 90.364 C 31.407 90.490,31.138 90.939,31.138 91.362 C 31.138 91.784,30.868 92.234,30.539 92.360 C 30.210 92.486,29.940 93.044,29.940 93.600 C 29.940 94.156,29.760 94.611,29.541 94.611 C 29.321 94.611,29.142 94.880,29.142 95.210 C 29.142 95.539,28.872 95.808,28.543 95.808 C 28.170 95.808,27.944 96.185,27.944 96.806 C 27.944 97.427,27.718 97.804,27.345 97.804 C 27.016 97.804,26.747 98.154,26.747 98.582 C 26.747 99.010,26.297 99.845,25.749 100.437 C 25.200 101.029,24.750 101.937,24.750 102.454 C 24.750 103.023,24.514 103.393,24.152 103.393 C 23.777 103.393,23.553 103.772,23.553 104.404 C 23.553 104.960,23.283 105.518,22.954 105.644 C 22.625 105.770,22.355 106.137,22.355 106.458 C 22.355 106.780,22.086 107.313,21.756 107.642 C 21.427 107.971,21.158 108.587,21.158 109.011 C 21.158 109.434,20.978 109.780,20.758 109.780 C 20.539 109.780,20.359 110.208,20.359 110.730 C 20.359 111.252,20.090 111.902,19.760 112.176 C 19.431 112.449,19.162 112.933,19.162 113.251 C 19.162 113.569,18.892 114.099,18.563 114.428 C 18.234 114.758,17.964 115.374,17.964 115.797 C 17.964 116.220,17.787 116.567,17.570 116.567 C 17.353 116.567,17.060 117.285,16.920 118.164 C 16.779 119.042,16.508 119.760,16.316 119.760 C 16.125 119.760,15.968 120.210,15.968 120.758 C 15.968 121.379,15.742 121.756,15.369 121.756 C 14.992 121.756,14.770 122.137,14.770 122.783 C 14.770 123.348,14.501 124.079,14.172 124.408 C 13.842 124.738,13.573 125.533,13.573 126.176 C 13.573 126.819,13.393 127.345,13.174 127.345 C 12.954 127.345,12.774 128.064,12.774 128.942 C 12.774 130.095,12.608 130.539,12.176 130.539 C 11.799 130.539,11.577 130.919,11.577 131.565 C 11.577 132.130,11.307 132.861,10.978 133.191 C 10.649 133.520,10.379 134.316,10.379 134.959 C 10.379 135.602,10.202 136.128,9.985 136.128 C 9.768 136.128,9.475 136.850,9.334 137.733 C 9.192 138.617,8.921 139.435,8.730 139.553 C 8.539 139.671,8.383 140.571,8.383 141.553 C 8.383 142.772,8.193 143.411,7.784 143.568 C 7.408 143.713,7.181 144.337,7.173 145.252 C 7.166 146.052,6.896 147.055,6.574 147.481 C 6.252 147.908,5.988 148.830,5.988 149.532 C 5.988 150.233,5.720 151.321,5.392 151.950 C 5.064 152.579,4.794 153.847,4.793 154.767 C 4.792 155.687,4.611 156.551,4.391 156.687 C 4.172 156.822,3.992 158.090,3.992 159.505 C 3.992 161.524,3.864 162.076,3.393 162.076 C 2.912 162.076,2.794 162.691,2.794 165.221 C 2.794 167.529,2.635 168.497,2.196 168.862 C 1.746 169.235,1.597 170.237,1.597 172.880 C 1.597 174.816,1.417 176.511,1.198 176.647 C 0.953 176.798,0.798 179.978,0.798 184.854 C 0.798 189.895,0.652 192.814,0.399 192.814 C 0.148 192.814,0.000 195.409,0.000 199.800 C 0.000 204.192,0.148 206.786,0.399 206.786 C 0.651 206.786,0.798 209.581,0.798 214.371 C 0.798 219.162,0.945 221.956,1.198 221.956 C 1.438 221.956,1.597 223.624,1.597 226.160 C 1.597 229.529,1.716 230.410,2.196 230.594 C 2.647 230.767,2.794 231.495,2.794 233.547 C 2.794 235.435,2.978 236.454,3.393 236.869 C 3.794 237.270,3.992 238.269,3.992 239.892 C 3.992 241.241,4.169 242.315,4.391 242.315 C 4.611 242.315,4.790 243.201,4.790 244.283 C 4.790 245.499,5.019 246.479,5.389 246.849 C 5.719 247.179,5.988 248.155,5.988 249.024 C 5.988 249.939,6.240 250.810,6.587 251.098 C 6.953 251.402,7.186 252.277,7.186 253.355 C 7.186 254.551,7.377 255.188,7.784 255.345 C 8.173 255.494,8.383 256.113,8.383 257.105 C 8.383 257.947,8.563 258.747,8.782 258.882 C 9.002 259.018,9.182 259.753,9.182 260.515 C 9.182 261.379,9.407 261.988,9.780 262.131 C 10.171 262.281,10.379 262.902,10.379 263.915 C 10.379 265.030,10.548 265.469,10.978 265.469 C 11.411 265.469,11.577 265.913,11.577 267.066 C 11.577 268.219,11.743 268.663,12.176 268.663 C 12.607 268.663,12.774 269.104,12.774 270.236 C 12.774 271.101,12.954 271.920,13.174 272.056 C 13.393 272.192,13.573 272.657,13.573 273.090 C 13.573 273.523,13.842 273.981,14.172 274.107 C 14.508 274.236,14.770 274.830,14.770 275.463 C 14.770 276.083,15.040 276.859,15.369 277.188 C 15.699 277.518,15.968 278.009,15.968 278.280 C 15.968 279.047,17.281 281.836,17.642 281.836 C 17.819 281.836,17.964 282.362,17.964 283.005 C 17.964 283.648,18.234 284.444,18.563 284.773 C 18.892 285.103,19.162 285.660,19.162 286.012 C 19.162 286.364,19.431 286.755,19.760 286.882 C 20.090 287.008,20.359 287.437,20.359 287.835 C 20.359 288.622,21.572 291.136,22.056 291.351 C 22.221 291.424,22.355 291.806,22.355 292.200 C 22.355 292.594,22.625 293.140,22.954 293.413 C 23.283 293.687,23.553 294.158,23.553 294.460 C 23.553 294.763,23.822 295.010,24.152 295.010 C 24.481 295.010,24.750 295.309,24.750 295.674 C 24.750 296.571,26.021 299.401,26.424 299.401 C 26.601 299.401,26.747 299.766,26.747 300.212 C 26.747 300.658,27.016 301.126,27.345 301.253 C 27.675 301.379,27.944 301.733,27.944 302.039 C 27.944 302.345,28.214 302.595,28.543 302.595 C 28.878 302.595,29.142 302.951,29.142 303.401 C 29.142 303.845,29.591 304.919,30.140 305.788 C 30.689 306.658,31.138 307.553,31.138 307.776 C 31.138 308.000,31.407 308.184,31.737 308.184 C 32.082 308.184,32.335 308.544,32.335 309.036 C 32.335 309.505,32.763 310.285,33.287 310.770 C 33.810 311.255,34.361 312.039,34.511 312.513 C 34.661 312.986,34.952 313.373,35.157 313.373 C 35.361 313.373,35.529 313.643,35.529 313.972 C 35.529 314.301,35.798 314.571,36.128 314.571 C 36.465 314.571,36.727 314.928,36.727 315.388 C 36.727 315.838,37.176 316.622,37.725 317.131 C 38.273 317.639,38.723 318.260,38.723 318.509 C 38.723 318.758,38.992 318.962,39.321 318.962 C 39.657 318.962,39.920 319.318,39.920 319.773 C 39.920 320.219,40.190 320.687,40.519 320.814 C 40.848 320.940,41.118 321.294,41.118 321.600 C 41.118 321.905,41.297 322.156,41.517 322.156 C 41.737 322.156,41.916 322.425,41.916 322.754 C 41.916 323.084,42.186 323.353,42.515 323.353 C 42.844 323.353,43.114 323.623,43.114 323.952 C 43.114 324.281,43.383 324.551,43.713 324.551 C 44.048 324.551,44.311 324.907,44.311 325.362 C 44.311 325.808,44.581 326.276,44.910 326.403 C 45.240 326.529,45.509 326.815,45.509 327.039 C 45.509 327.262,46.407 328.315,47.505 329.379 C 48.603 330.442,49.501 331.484,49.501 331.694 C 49.501 331.903,50.040 332.613,50.699 333.272 C 51.357 333.931,51.896 334.663,51.896 334.899 C 51.896 335.136,52.166 335.329,52.495 335.329 C 52.824 335.329,53.094 335.568,53.094 335.861 C 53.094 336.153,53.543 336.632,54.092 336.926 C 54.641 337.220,55.090 337.699,55.090 337.992 C 55.090 338.284,55.359 338.523,55.689 338.523 C 56.018 338.523,56.287 338.792,56.287 339.122 C 56.287 339.451,56.557 339.721,56.886 339.721 C 57.216 339.721,57.485 339.914,57.485 340.150 C 57.485 340.709,59.690 342.914,60.249 342.914 C 60.485 342.914,60.679 343.184,60.679 343.513 C 60.679 343.842,60.844 344.112,61.047 344.112 C 61.527 344.112,63.872 346.457,63.872 346.937 C 63.872 347.140,64.066 347.305,64.302 347.305 C 64.539 347.305,65.271 347.844,65.930 348.503 C 66.588 349.162,67.383 349.701,67.695 349.701 C 68.008 349.701,68.263 349.880,68.263 350.100 C 68.263 350.319,68.533 350.499,68.862 350.499 C 69.192 350.499,69.461 350.692,69.461 350.929 C 69.461 351.488,71.666 353.693,72.225 353.693 C 72.461 353.693,72.655 353.962,72.655 354.291 C 72.655 354.621,72.905 354.890,73.211 354.890 C 73.517 354.890,73.870 355.160,73.997 355.489 C 74.123 355.818,74.591 356.088,75.037 356.088 C 75.492 356.088,75.848 356.351,75.848 356.687 C 75.848 357.016,76.036 357.285,76.265 357.285 C 76.494 357.285,77.166 357.735,77.758 358.283 C 78.350 358.832,79.150 359.281,79.537 359.281 C 79.923 359.281,80.240 359.551,80.240 359.880 C 80.240 360.210,80.509 360.479,80.838 360.479 C 81.168 360.479,81.439 360.704,81.440 360.978 C 81.443 361.493,83.195 362.475,84.112 362.475 C 84.397 362.475,84.631 362.745,84.631 363.074 C 84.631 363.403,84.900 363.673,85.230 363.673 C 85.559 363.673,85.828 363.942,85.828 364.271 C 85.828 364.609,86.185 364.870,86.646 364.870 C 87.095 364.870,87.879 365.319,88.388 365.868 C 88.897 366.417,89.697 366.866,90.166 366.866 C 90.657 366.866,91.018 367.120,91.018 367.465 C 91.018 367.794,91.293 368.064,91.629 368.064 C 91.966 368.064,92.344 368.333,92.470 368.663 C 92.597 368.992,93.048 369.261,93.473 369.261 C 93.899 369.261,94.731 369.711,95.323 370.259 C 95.915 370.808,96.715 371.257,97.102 371.257 C 97.488 371.257,97.804 371.527,97.804 371.856 C 97.804 372.222,98.177 372.455,98.760 372.455 C 99.285 372.455,99.818 372.725,99.945 373.054 C 100.071 373.383,100.539 373.653,100.985 373.653 C 101.431 373.653,101.796 373.819,101.796 374.023 C 101.796 374.449,104.051 375.649,104.852 375.649 C 105.147 375.649,105.389 375.816,105.389 376.021 C 105.389 376.226,105.785 376.519,106.269 376.672 C 106.753 376.826,107.394 377.197,107.695 377.498 C 107.995 377.798,108.587 378.044,109.011 378.044 C 109.434 378.044,109.780 378.224,109.780 378.443 C 109.780 378.663,110.210 378.842,110.736 378.842 C 111.261 378.842,111.794 379.112,111.921 379.441 C 112.047 379.770,112.586 380.040,113.118 380.040 C 113.651 380.040,114.190 380.309,114.316 380.639 C 114.442 380.968,114.866 381.243,115.257 381.250 C 115.648 381.257,116.317 381.527,116.743 381.849 C 117.169 382.171,117.933 382.435,118.440 382.435 C 118.947 382.435,119.361 382.615,119.361 382.834 C 119.361 383.054,119.900 383.234,120.559 383.234 C 121.357 383.234,121.756 383.433,121.756 383.832 C 121.756 384.198,122.129 384.431,122.712 384.431 C 123.237 384.431,123.770 384.701,123.897 385.030 C 124.033 385.384,124.633 385.629,125.365 385.629 C 126.047 385.629,126.873 385.898,127.203 386.228 C 127.532 386.557,128.137 386.826,128.548 386.826 C 128.958 386.826,129.405 387.006,129.541 387.226 C 129.677 387.445,130.387 387.625,131.119 387.625 C 131.933 387.625,132.539 387.857,132.679 388.224 C 132.815 388.578,133.415 388.822,134.148 388.822 C 134.829 388.822,135.656 389.092,135.985 389.421 C 136.315 389.750,137.000 390.020,137.508 390.020 C 138.016 390.020,138.946 390.288,139.575 390.616 C 140.204 390.944,141.112 391.214,141.593 391.215 C 142.074 391.216,142.579 391.397,142.715 391.617 C 142.850 391.836,143.849 392.016,144.934 392.016 C 146.421 392.016,146.906 392.163,146.906 392.615 C 146.906 393.060,147.375 393.214,148.731 393.214 C 149.821 393.214,150.797 393.455,151.155 393.812 C 151.504 394.162,152.480 394.411,153.498 394.411 C 154.457 394.411,155.353 394.591,155.489 394.810 C 155.625 395.030,156.893 395.210,158.307 395.210 C 160.326 395.210,160.878 395.338,160.878 395.808 C 160.878 396.280,161.436 396.407,163.502 396.407 C 165.301 396.407,166.313 396.595,166.724 397.006 C 167.154 397.436,168.201 397.605,170.442 397.605 C 172.214 397.605,173.991 397.828,174.556 398.121 C 177.004 399.391,223.706 399.391,224.976 398.121 C 225.318 397.779,226.650 397.605,228.926 397.605 C 231.611 397.605,232.411 397.474,232.590 397.006 C 232.768 396.544,233.538 396.407,235.971 396.407 C 238.506 396.407,239.122 396.290,239.122 395.808 C 239.122 395.338,239.674 395.210,241.693 395.210 C 243.107 395.210,244.375 395.030,244.511 394.810 C 244.647 394.591,245.651 394.411,246.743 394.411 C 248.139 394.411,248.796 394.234,248.957 393.812 C 249.117 393.396,249.768 393.214,251.098 393.214 C 252.428 393.214,253.078 393.032,253.238 392.615 C 253.390 392.220,254.015 392.016,255.077 392.016 C 255.962 392.016,256.687 391.836,256.687 391.617 C 256.687 391.397,257.371 391.218,258.207 391.218 C 259.043 391.218,260.076 390.954,260.503 390.631 C 260.929 390.309,261.647 390.040,262.099 390.033 C 262.551 390.026,263.270 389.756,263.696 389.434 C 264.122 389.111,265.061 388.842,265.781 388.835 C 266.568 388.827,267.183 388.583,267.321 388.224 C 267.461 387.857,268.067 387.625,268.881 387.625 C 269.613 387.625,270.323 387.445,270.459 387.226 C 270.595 387.006,271.042 386.826,271.452 386.826 C 271.863 386.826,272.468 386.557,272.797 386.228 C 273.127 385.898,273.836 385.629,274.374 385.629 C 274.911 385.629,275.575 385.359,275.848 385.030 C 276.122 384.701,276.753 384.431,277.252 384.431 C 277.750 384.431,278.261 384.162,278.388 383.832 C 278.514 383.503,279.072 383.234,279.628 383.234 C 280.184 383.234,280.639 383.054,280.639 382.834 C 280.639 382.615,281.053 382.435,281.560 382.435 C 282.067 382.435,282.831 382.171,283.257 381.849 C 283.683 381.527,284.324 381.257,284.682 381.250 C 285.039 381.243,285.555 380.968,285.828 380.639 C 286.102 380.309,286.668 380.040,287.087 380.040 C 287.506 380.040,287.953 379.770,288.079 379.441 C 288.206 379.112,288.739 378.842,289.264 378.842 C 289.790 378.842,290.221 378.708,290.224 378.543 C 290.226 378.378,291.214 377.805,292.419 377.269 C 293.625 376.733,294.611 376.149,294.611 375.972 C 294.611 375.794,294.853 375.649,295.148 375.649 C 295.949 375.649,298.204 374.449,298.204 374.023 C 298.204 373.819,298.569 373.653,299.015 373.653 C 299.461 373.653,299.929 373.383,300.055 373.054 C 300.182 372.725,300.715 372.455,301.240 372.455 C 301.823 372.455,302.196 372.222,302.196 371.856 C 302.196 371.517,302.554 371.257,303.023 371.257 C 303.477 371.257,304.100 371.033,304.406 370.758 C 305.676 369.619,307.345 368.520,308.283 368.205 C 308.668 368.076,308.982 367.722,308.982 367.419 C 308.982 367.115,309.366 366.866,309.834 366.866 C 310.303 366.866,311.103 366.417,311.612 365.868 C 312.121 365.319,312.770 364.864,313.055 364.857 C 313.736 364.840,315.369 363.465,315.369 362.910 C 315.369 362.671,315.753 362.475,316.222 362.475 C 316.691 362.475,317.490 362.026,317.999 361.477 C 318.508 360.928,319.112 360.479,319.342 360.479 C 319.572 360.479,319.760 360.210,319.760 359.880 C 319.760 359.551,320.077 359.281,320.463 359.281 C 320.850 359.281,321.650 358.832,322.242 358.283 C 322.834 357.735,323.506 357.285,323.735 357.285 C 323.964 357.285,324.152 357.016,324.152 356.687 C 324.152 356.357,324.421 356.088,324.750 356.088 C 325.080 356.088,325.349 355.818,325.349 355.489 C 325.349 355.160,325.688 354.890,326.101 354.890 C 326.515 354.890,328.056 353.723,329.526 352.295 C 330.996 350.868,332.348 349.701,332.530 349.701 C 332.712 349.701,333.693 348.892,334.709 347.904 C 335.726 346.916,336.654 346.108,336.773 346.108 C 337.172 346.108,339.321 343.777,339.321 343.344 C 339.321 343.108,339.591 342.914,339.920 342.914 C 340.250 342.914,340.519 342.645,340.519 342.315 C 340.519 341.986,340.758 341.717,341.050 341.717 C 341.343 341.717,341.822 341.267,342.116 340.719 C 342.410 340.170,342.889 339.721,343.181 339.721 C 343.473 339.721,343.713 339.451,343.713 339.122 C 343.713 338.792,343.982 338.523,344.311 338.523 C 344.641 338.523,344.910 338.253,344.910 337.924 C 344.910 337.595,345.103 337.325,345.338 337.325 C 345.862 337.325,346.906 336.321,346.906 335.817 C 346.906 335.614,347.445 335.036,348.104 334.531 C 348.762 334.026,349.301 333.281,349.301 332.874 C 349.301 332.468,349.571 332.136,349.900 332.136 C 350.230 332.136,350.499 331.968,350.499 331.763 C 350.499 331.558,351.667 330.206,353.094 328.757 C 354.521 327.309,355.689 325.860,355.689 325.537 C 355.689 324.873,357.078 323.353,357.685 323.353 C 357.904 323.353,358.084 323.166,358.084 322.937 C 358.084 322.708,358.533 322.036,359.082 321.444 C 359.631 320.852,360.080 320.051,360.080 319.665 C 360.080 319.278,360.349 318.962,360.679 318.962 C 361.008 318.962,361.277 318.712,361.277 318.406 C 361.277 318.100,361.547 317.746,361.876 317.620 C 362.206 317.494,362.475 317.107,362.475 316.760 C 362.475 316.413,362.924 315.713,363.473 315.205 C 364.022 314.696,364.471 314.076,364.471 313.826 C 364.471 313.577,364.639 313.373,364.843 313.373 C 365.048 313.373,365.332 313.008,365.473 312.562 C 365.615 312.116,366.166 311.281,366.698 310.707 C 367.230 310.133,367.665 309.331,367.665 308.924 C 367.665 308.517,367.934 308.184,368.263 308.184 C 368.593 308.184,368.862 307.936,368.862 307.634 C 368.862 307.331,369.132 306.860,369.461 306.587 C 369.790 306.313,370.060 305.753,370.060 305.340 C 370.060 304.928,370.236 304.591,370.451 304.591 C 370.667 304.591,370.956 304.142,371.094 303.593 C 371.231 303.044,371.504 302.595,371.700 302.595 C 371.896 302.595,372.056 302.345,372.056 302.039 C 372.056 301.733,372.325 301.379,372.655 301.253 C 372.984 301.126,373.253 300.658,373.253 300.212 C 373.253 299.766,373.430 299.401,373.645 299.401 C 373.860 299.401,374.148 298.959,374.283 298.420 C 374.419 297.880,374.781 297.229,375.089 296.973 C 375.397 296.718,375.649 296.172,375.649 295.760 C 375.649 295.347,375.828 295.010,376.048 295.010 C 376.267 295.010,376.447 294.580,376.447 294.055 C 376.447 293.529,376.717 292.996,377.046 292.870 C 377.375 292.743,377.645 292.185,377.645 291.629 C 377.645 290.997,377.869 290.619,378.244 290.619 C 378.616 290.619,378.842 290.242,378.842 289.621 C 378.842 289.072,379.022 288.623,379.242 288.623 C 379.461 288.623,379.641 288.084,379.641 287.425 C 379.641 286.627,379.840 286.228,380.240 286.228 C 380.605 286.228,380.838 285.855,380.838 285.272 C 380.838 284.747,381.108 284.214,381.437 284.087 C 381.766 283.961,382.036 283.422,382.036 282.890 C 382.036 282.357,382.305 281.818,382.635 281.692 C 382.964 281.566,383.234 281.108,383.234 280.675 C 383.234 280.242,383.413 279.776,383.633 279.641 C 383.852 279.505,384.032 279.032,384.032 278.591 C 384.032 278.149,384.301 277.518,384.631 277.188 C 384.960 276.859,385.230 276.083,385.230 275.463 C 385.230 274.830,385.492 274.236,385.828 274.107 C 386.158 273.981,386.427 273.423,386.427 272.867 C 386.427 272.311,386.605 271.856,386.822 271.856 C 387.039 271.856,387.331 271.138,387.471 270.259 C 387.612 269.381,387.883 268.663,388.075 268.663 C 388.266 268.663,388.423 267.944,388.423 267.066 C 388.423 265.913,388.589 265.469,389.022 265.469 C 389.452 265.469,389.621 265.030,389.621 263.915 C 389.621 262.902,389.829 262.281,390.220 262.131 C 390.579 261.993,390.823 261.378,390.831 260.591 C 390.838 259.871,391.108 258.933,391.430 258.507 C 391.752 258.080,392.016 257.238,392.016 256.634 C 392.016 256.030,392.196 255.425,392.415 255.289 C 392.635 255.154,392.814 254.239,392.814 253.257 C 392.814 252.039,393.004 251.399,393.413 251.242 C 393.822 251.085,394.012 250.446,394.012 249.230 C 394.012 248.178,394.257 247.203,394.611 246.849 C 395.008 246.452,395.210 245.455,395.210 243.884 C 395.210 242.572,395.388 241.517,395.609 241.517 C 395.837 241.517,396.008 240.319,396.008 238.723 C 396.008 236.505,396.132 235.928,396.607 235.928 C 397.089 235.928,397.206 235.307,397.206 232.735 C 397.206 230.162,397.322 229.541,397.804 229.541 C 398.300 229.541,398.403 228.791,398.403 225.183 C 398.403 222.051,398.544 220.778,398.902 220.659 C 399.709 220.390,399.794 179.435,398.991 177.888 C 398.604 177.141,398.403 175.555,398.403 173.236 C 398.403 170.641,398.246 169.561,397.804 169.119 C 397.387 168.702,397.206 167.680,397.206 165.746 C 397.206 163.767,397.034 162.830,396.607 162.475 C 396.190 162.129,396.008 161.211,396.008 159.456 C 396.008 158.068,395.828 156.822,395.609 156.687 C 395.389 156.551,395.210 155.655,395.210 154.696 C 395.210 153.677,394.960 152.702,394.611 152.352 C 394.253 151.995,394.012 151.019,394.012 149.929 C 394.012 148.573,393.858 148.104,393.413 148.104 C 392.953 148.104,392.814 147.594,392.814 145.908 C 392.814 144.701,392.635 143.713,392.415 143.713 C 392.196 143.713,392.015 143.308,392.014 142.814 C 392.012 142.320,391.743 141.402,391.415 140.773 C 391.087 140.144,390.818 139.105,390.818 138.465 C 390.818 137.798,390.562 137.202,390.220 137.071 C 389.829 136.921,389.621 136.300,389.621 135.287 C 389.621 134.171,389.452 133.733,389.022 133.733 C 388.589 133.733,388.423 133.289,388.423 132.136 C 388.423 131.257,388.266 130.539,388.075 130.539 C 387.883 130.539,387.612 129.820,387.471 128.942 C 387.331 128.064,387.039 127.345,386.822 127.345 C 386.605 127.345,386.427 126.806,386.427 126.148 C 386.427 125.349,386.228 124.950,385.828 124.950 C 385.409 124.950,385.230 124.527,385.230 123.540 C 385.230 122.656,385.007 122.045,384.631 121.901 C 384.301 121.774,384.032 121.252,384.032 120.739 C 384.032 120.227,383.852 119.697,383.633 119.561 C 383.413 119.425,383.234 118.876,383.234 118.340 C 383.234 117.740,383.003 117.365,382.635 117.365 C 382.241 117.365,382.036 116.971,382.036 116.217 C 382.036 115.585,381.766 114.844,381.437 114.571 C 381.108 114.298,380.838 113.647,380.838 113.125 C 380.838 112.547,380.604 112.176,380.240 112.176 C 379.840 112.176,379.641 111.776,379.641 110.978 C 379.641 110.319,379.461 109.780,379.242 109.780 C 379.022 109.780,378.842 109.443,378.842 109.031 C 378.842 108.619,378.573 108.058,378.244 107.784 C 377.914 107.511,377.645 107.062,377.645 106.786 C 377.645 106.511,377.375 106.062,377.046 105.788 C 376.717 105.515,376.447 104.980,376.447 104.600 C 376.447 104.220,375.998 103.424,375.449 102.832 C 374.900 102.240,374.451 101.517,374.451 101.226 C 374.451 100.935,374.182 100.473,373.852 100.200 C 373.523 99.926,373.253 99.360,373.253 98.941 C 373.253 98.521,372.984 98.075,372.655 97.949 C 372.325 97.822,372.056 97.355,372.056 96.909 C 372.056 96.464,371.607 95.683,371.058 95.175 C 370.509 94.666,370.060 93.876,370.060 93.420 C 370.060 92.963,369.790 92.486,369.461 92.360 C 369.132 92.234,368.862 91.880,368.862 91.574 C 368.862 91.268,368.593 91.018,368.263 91.018 C 367.891 91.018,367.665 90.641,367.665 90.020 C 367.665 89.471,367.485 89.022,367.265 89.022 C 367.046 89.022,366.866 88.752,366.866 88.423 C 366.866 88.094,366.597 87.824,366.267 87.824 C 365.932 87.824,365.669 87.468,365.669 87.013 C 365.669 86.567,365.399 86.099,365.070 85.973 C 364.741 85.846,364.471 85.493,364.471 85.187 C 364.471 84.881,364.311 84.631,364.115 84.631 C 363.919 84.631,363.646 84.182,363.509 83.633 C 363.371 83.084,363.082 82.635,362.867 82.635 C 362.651 82.635,362.475 82.365,362.475 82.036 C 362.475 81.707,362.206 81.437,361.876 81.437 C 361.540 81.437,361.277 81.081,361.277 80.626 C 361.277 80.180,361.008 79.712,360.679 79.585 C 360.349 79.459,360.080 79.171,360.080 78.945 C 360.080 78.719,359.631 78.118,359.082 77.610 C 358.533 77.101,358.084 76.497,358.084 76.267 C 358.084 76.037,357.814 75.848,357.485 75.848 C 357.149 75.848,356.886 75.492,356.886 75.037 C 356.886 74.591,356.617 74.123,356.287 73.997 C 355.958 73.870,355.689 73.585,355.689 73.364 C 355.689 73.142,354.970 72.263,354.092 71.411 C 353.214 70.559,352.495 69.681,352.495 69.462 C 352.495 69.242,351.776 68.343,350.898 67.465 C 350.020 66.587,349.301 65.689,349.301 65.469 C 349.301 65.250,349.032 65.070,348.703 65.070 C 348.373 65.070,348.104 64.876,348.104 64.640 C 348.104 64.081,345.899 61.876,345.340 61.876 C 345.104 61.876,344.910 61.607,344.910 61.277 C 344.910 60.948,344.641 60.679,344.311 60.679 C 343.982 60.679,343.713 60.485,343.713 60.249 C 343.713 59.690,341.508 57.485,340.949 57.485 C 340.712 57.485,340.519 57.216,340.519 56.886 C 340.519 56.557,340.250 56.287,339.920 56.287 C 339.591 56.287,339.321 56.094,339.321 55.858 C 339.321 55.299,337.116 53.094,336.558 53.094 C 336.321 53.094,336.128 52.824,336.128 52.495 C 336.128 52.166,335.972 51.896,335.782 51.896 C 335.591 51.896,334.423 50.908,333.186 49.701 C 331.950 48.493,330.668 47.505,330.339 47.505 C 330.010 47.505,329.741 47.236,329.741 46.906 C 329.741 46.577,329.471 46.307,329.142 46.307 C 328.812 46.307,328.543 46.128,328.543 45.908 C 328.543 45.689,328.273 45.509,327.944 45.509 C 327.615 45.509,327.345 45.331,327.345 45.114 C 327.345 44.507,326.033 43.114,325.460 43.114 C 325.180 43.114,324.950 42.934,324.950 42.715 C 324.950 42.495,324.675 42.315,324.339 42.315 C 324.003 42.315,323.624 42.046,323.498 41.717 C 323.371 41.387,323.018 41.118,322.712 41.118 C 322.406 41.118,322.156 40.953,322.156 40.751 C 322.156 40.549,321.482 39.969,320.659 39.462 C 319.835 38.955,318.801 38.177,318.360 37.733 C 317.565 36.932,316.467 36.159,315.426 35.667 C 315.127 35.526,314.427 34.988,313.870 34.472 C 313.313 33.955,312.435 33.533,311.918 33.533 C 311.401 33.533,310.978 33.353,310.978 33.134 C 310.978 32.441,309.415 31.138,308.583 31.138 C 308.144 31.138,307.783 30.913,307.781 30.639 C 307.778 30.135,306.034 29.142,305.153 29.142 C 304.891 29.142,304.573 28.872,304.446 28.543 C 304.320 28.214,303.871 27.944,303.448 27.944 C 303.026 27.944,302.577 27.675,302.450 27.345 C 302.324 27.016,301.946 26.747,301.609 26.747 C 301.273 26.747,300.998 26.570,300.998 26.355 C 300.998 26.140,300.549 25.851,300.000 25.713 C 299.451 25.575,299.002 25.302,299.002 25.106 C 299.002 24.911,298.553 24.750,298.004 24.750 C 297.383 24.750,297.006 24.524,297.006 24.152 C 297.006 23.786,296.634 23.553,296.051 23.553 C 295.525 23.553,294.992 23.283,294.866 22.954 C 294.739 22.625,294.280 22.355,293.845 22.355 C 293.411 22.355,292.571 21.906,291.978 21.357 C 291.386 20.808,290.498 20.359,290.004 20.359 C 289.511 20.359,289.004 20.090,288.878 19.760 C 288.746 19.417,288.150 19.162,287.480 19.162 C 286.811 19.162,286.215 18.906,286.083 18.563 C 285.957 18.234,285.399 17.964,284.843 17.964 C 284.287 17.964,283.832 17.784,283.832 17.565 C 283.832 17.345,283.402 17.166,282.877 17.166 C 282.352 17.166,281.818 16.896,281.692 16.567 C 281.566 16.238,281.084 15.968,280.623 15.968 C 280.161 15.968,279.514 15.699,279.184 15.369 C 278.855 15.040,278.060 14.770,277.417 14.770 C 276.644 14.770,276.248 14.568,276.248 14.172 C 276.248 13.772,275.848 13.573,275.050 13.573 C 274.391 13.573,273.852 13.393,273.852 13.174 C 273.852 12.954,273.134 12.774,272.255 12.774 C 271.102 12.774,270.659 12.608,270.659 12.176 C 270.659 11.799,270.278 11.577,269.632 11.577 C 269.068 11.577,268.336 11.307,268.007 10.978 C 267.678 10.649,267.017 10.374,266.538 10.367 C 266.060 10.360,265.320 10.090,264.894 9.768 C 264.468 9.445,263.614 9.182,262.998 9.182 C 262.381 9.182,261.876 9.002,261.876 8.782 C 261.876 8.563,261.177 8.383,260.322 8.383 C 259.309 8.383,258.688 8.175,258.538 7.784 C 258.377 7.364,257.722 7.186,256.343 7.186 C 254.964 7.186,254.308 7.007,254.147 6.587 C 253.991 6.180,253.353 5.988,252.157 5.988 C 251.080 5.988,250.204 5.756,249.900 5.389 C 249.599 5.026,248.725 4.790,247.679 4.790 C 246.731 4.790,245.844 4.611,245.709 4.391 C 245.573 4.172,244.561 3.992,243.461 3.992 C 242.215 3.992,241.234 3.766,240.861 3.393 C 240.444 2.976,239.423 2.794,237.496 2.794 C 235.304 2.794,234.731 2.670,234.731 2.196 C 234.731 1.714,234.112 1.597,231.560 1.597 C 229.817 1.597,228.279 1.417,228.144 1.198 C 228.002 0.968,225.877 0.798,223.130 0.798 C 220.218 0.798,218.363 0.643,218.363 0.399 C 218.363 0.139,211.976 0.000,200.000 0.000 C 188.024 0.000,181.637 0.139,181.637 0.399 M219.019 9.780 C 219.470 10.232,220.587 10.379,223.548 10.379 C 226.289 10.379,227.528 10.527,227.641 10.867 C 227.744 11.175,228.930 11.412,230.868 11.509 C 232.553 11.594,233.932 11.824,233.932 12.020 C 233.932 12.215,235.190 12.375,236.727 12.375 C 238.944 12.375,239.521 12.499,239.521 12.974 C 239.521 13.444,240.071 13.573,242.073 13.573 C 243.973 13.573,244.684 13.726,244.855 14.172 C 245.006 14.564,245.628 14.770,246.661 14.770 C 247.528 14.770,248.304 14.973,248.387 15.220 C 248.469 15.468,249.472 15.760,250.616 15.870 C 251.759 15.980,252.695 16.226,252.695 16.418 C 252.695 16.610,253.394 16.766,254.249 16.766 C 255.262 16.766,255.883 16.975,256.033 17.365 C 256.177 17.741,256.787 17.964,257.672 17.964 C 258.447 17.964,259.082 18.136,259.082 18.345 C 259.082 18.555,259.739 18.850,260.542 19.000 C 261.345 19.151,262.467 19.517,263.037 19.814 C 263.606 20.111,264.376 20.355,264.747 20.357 C 265.118 20.358,265.533 20.539,265.669 20.758 C 265.804 20.978,266.514 21.158,267.246 21.158 C 268.061 21.158,268.666 21.390,268.807 21.756 C 268.933 22.086,269.492 22.355,270.047 22.355 C 270.603 22.355,271.058 22.533,271.058 22.750 C 271.058 22.967,271.776 23.259,272.655 23.400 C 273.533 23.540,274.251 23.812,274.251 24.003 C 274.251 24.195,274.790 24.351,275.449 24.351 C 276.248 24.351,276.647 24.551,276.647 24.950 C 276.647 25.290,277.005 25.549,277.474 25.549 C 277.928 25.549,278.570 25.818,278.899 26.148 C 279.229 26.477,279.845 26.747,280.268 26.747 C 280.691 26.747,281.038 26.892,281.038 27.069 C 281.038 27.410,283.808 28.743,284.516 28.743 C 284.745 28.743,285.156 29.012,285.429 29.341 C 285.702 29.671,286.186 29.940,286.505 29.940 C 286.823 29.940,287.352 30.210,287.682 30.539 C 288.011 30.868,288.627 31.138,289.050 31.138 C 289.474 31.138,289.820 31.314,289.820 31.529 C 289.820 31.745,290.269 32.034,290.818 32.171 C 291.367 32.309,291.816 32.582,291.816 32.778 C 291.816 32.974,292.246 33.134,292.772 33.134 C 293.297 33.134,293.830 33.403,293.957 33.733 C 294.083 34.062,294.532 34.331,294.955 34.331 C 295.377 34.331,295.826 34.601,295.953 34.930 C 296.079 35.259,296.458 35.529,296.794 35.529 C 297.130 35.529,297.405 35.705,297.405 35.921 C 297.405 36.136,297.854 36.425,298.403 36.563 C 298.952 36.700,299.401 36.973,299.401 37.169 C 299.401 37.365,299.850 37.525,300.399 37.525 C 301.020 37.525,301.397 37.751,301.397 38.124 C 301.397 38.453,301.647 38.723,301.953 38.723 C 302.259 38.723,302.613 38.992,302.739 39.321 C 302.866 39.651,303.334 39.920,303.780 39.920 C 304.226 39.920,304.591 40.100,304.591 40.319 C 304.591 40.539,304.841 40.719,305.147 40.719 C 305.453 40.719,305.806 40.988,305.933 41.317 C 306.059 41.647,306.438 41.916,306.774 41.916 C 307.110 41.916,307.726 42.231,308.143 42.615 C 310.386 44.682,310.927 45.110,311.301 45.110 C 311.527 45.110,312.448 45.817,313.348 46.682 C 314.247 47.546,315.340 48.367,315.775 48.505 C 316.211 48.643,316.567 48.924,316.567 49.129 C 316.567 49.333,316.735 49.501,316.941 49.501 C 317.147 49.501,317.906 50.040,318.627 50.699 C 319.348 51.357,320.087 51.896,320.268 51.896 C 320.449 51.896,321.013 52.345,321.522 52.894 C 322.031 53.443,322.651 53.892,322.900 53.892 C 323.149 53.892,323.353 54.162,323.353 54.491 C 323.353 54.820,323.513 55.090,323.707 55.090 C 323.902 55.090,325.098 56.078,326.365 57.285 C 327.632 58.493,328.828 59.481,329.024 59.481 C 329.219 59.481,329.796 59.930,330.304 60.479 C 330.813 61.028,331.433 61.477,331.683 61.477 C 331.932 61.477,332.136 61.670,332.136 61.905 C 332.136 62.463,338.735 69.062,339.293 69.062 C 339.528 69.062,339.721 69.421,339.721 69.861 C 339.721 70.300,340.439 71.357,341.317 72.209 C 342.196 73.062,342.914 73.960,342.914 74.205 C 342.914 74.450,343.184 74.651,343.513 74.651 C 343.842 74.651,344.112 74.844,344.112 75.081 C 344.112 75.639,346.317 77.844,346.875 77.844 C 347.112 77.844,347.305 78.161,347.305 78.547 C 347.305 78.933,347.754 79.734,348.303 80.326 C 348.852 80.918,349.301 81.590,349.301 81.819 C 349.301 82.048,349.571 82.236,349.900 82.236 C 350.230 82.236,350.499 82.505,350.499 82.834 C 350.499 83.164,350.768 83.433,351.098 83.433 C 351.434 83.433,351.697 83.789,351.697 84.244 C 351.697 84.690,351.966 85.158,352.295 85.285 C 352.625 85.411,352.894 85.765,352.894 86.071 C 352.894 86.377,353.074 86.627,353.293 86.627 C 353.513 86.627,353.693 86.896,353.693 87.226 C 353.693 87.555,353.962 87.824,354.291 87.824 C 354.664 87.824,354.890 88.201,354.890 88.822 C 354.890 89.443,355.116 89.820,355.489 89.820 C 355.818 89.820,356.088 90.090,356.088 90.419 C 356.088 90.749,356.248 91.018,356.444 91.018 C 356.640 91.018,356.912 91.467,357.050 92.016 C 357.188 92.565,357.477 93.014,357.692 93.014 C 357.908 93.014,358.084 93.283,358.084 93.613 C 358.084 93.942,358.353 94.212,358.683 94.212 C 359.012 94.212,359.281 94.562,359.281 94.990 C 359.281 95.418,359.523 95.912,359.817 96.088 C 360.112 96.264,360.685 97.171,361.092 98.104 C 361.498 99.037,361.975 99.800,362.153 99.800 C 362.330 99.800,362.475 100.165,362.475 100.611 C 362.475 101.057,362.745 101.526,363.074 101.652 C 363.403 101.778,363.673 102.132,363.673 102.438 C 363.673 102.744,363.852 102.994,364.072 102.994 C 364.291 102.994,364.471 103.251,364.471 103.564 C 364.471 103.878,364.696 104.380,364.970 104.680 C 365.717 105.497,366.866 107.769,366.866 108.428 C 366.866 108.747,367.136 109.110,367.465 109.237 C 367.794 109.363,368.064 109.717,368.064 110.023 C 368.064 110.329,368.244 110.579,368.463 110.579 C 368.683 110.579,368.862 111.034,368.862 111.589 C 368.862 112.145,369.132 112.703,369.461 112.830 C 369.790 112.956,370.060 113.489,370.060 114.015 C 370.060 114.598,370.293 114.970,370.659 114.970 C 371.058 114.970,371.257 115.369,371.257 116.168 C 371.257 116.966,371.457 117.365,371.856 117.365 C 372.229 117.365,372.455 117.742,372.455 118.363 C 372.455 118.912,372.612 119.361,372.803 119.361 C 372.995 119.361,373.266 120.080,373.407 120.958 C 373.547 121.836,373.840 122.555,374.057 122.555 C 374.274 122.555,374.451 122.985,374.451 123.510 C 374.451 124.036,374.721 124.569,375.050 124.695 C 375.379 124.822,375.649 125.380,375.649 125.936 C 375.649 126.491,375.805 126.946,375.997 126.946 C 376.188 126.946,376.460 127.665,376.600 128.543 C 376.741 129.421,377.033 130.140,377.250 130.140 C 377.467 130.140,377.645 130.594,377.645 131.150 C 377.645 131.706,377.914 132.264,378.244 132.391 C 378.634 132.540,378.842 133.161,378.842 134.174 C 378.842 135.290,379.011 135.729,379.441 135.729 C 379.874 135.729,380.040 136.172,380.040 137.325 C 380.040 138.204,380.197 138.922,380.388 138.922 C 380.580 138.922,380.851 139.641,380.992 140.519 C 381.132 141.397,381.424 142.116,381.641 142.116 C 381.858 142.116,382.036 142.840,382.036 143.725 C 382.036 144.787,382.239 145.413,382.635 145.564 C 383.054 145.725,383.234 146.379,383.234 147.747 C 383.234 149.217,383.382 149.701,383.832 149.701 C 384.284 149.701,384.431 150.186,384.431 151.673 C 384.431 152.758,384.611 153.757,384.830 153.892 C 385.050 154.028,385.230 155.032,385.230 156.124 C 385.230 157.520,385.407 158.177,385.828 158.339 C 386.265 158.506,386.427 159.193,386.427 160.872 C 386.427 162.433,386.620 163.336,387.026 163.673 C 387.444 164.020,387.625 164.941,387.625 166.728 C 387.625 168.634,387.777 169.345,388.224 169.516 C 388.697 169.698,388.822 170.531,388.822 173.496 C 388.822 175.729,388.984 177.246,389.222 177.246 C 389.471 177.246,389.621 179.645,389.621 183.645 C 389.621 188.966,389.722 190.084,390.220 190.275 C 390.728 190.470,390.818 191.890,390.818 199.656 C 390.818 207.422,390.728 208.842,390.220 209.037 C 389.725 209.227,389.621 210.293,389.621 215.189 C 389.621 218.706,389.459 221.211,389.222 221.357 C 389.002 221.493,388.822 223.191,388.822 225.131 C 388.822 227.897,388.693 228.707,388.224 228.887 C 387.766 229.063,387.625 229.814,387.625 232.080 C 387.625 234.347,387.484 235.098,387.026 235.274 C 386.580 235.445,386.427 236.157,386.427 238.069 C 386.427 239.980,386.275 240.692,385.828 240.863 C 385.406 241.025,385.230 241.684,385.230 243.101 C 385.230 244.206,385.050 245.110,384.830 245.110 C 384.611 245.110,384.431 246.014,384.431 247.118 C 384.431 248.535,384.255 249.195,383.832 249.357 C 383.447 249.505,383.234 250.122,383.234 251.092 C 383.234 251.943,382.973 252.813,382.635 253.094 C 382.274 253.394,382.036 254.267,382.036 255.296 C 382.036 256.443,381.840 257.076,381.437 257.230 C 381.061 257.374,380.838 257.985,380.838 258.870 C 380.838 259.645,380.659 260.279,380.439 260.279 C 380.220 260.279,380.040 260.998,380.040 261.876 C 380.040 263.029,379.874 263.473,379.441 263.473 C 379.064 263.473,378.842 263.853,378.842 264.500 C 378.842 265.064,378.573 265.796,378.244 266.125 C 377.914 266.454,377.645 267.173,377.645 267.722 C 377.645 268.271,377.375 268.989,377.046 269.319 C 376.717 269.648,376.447 270.253,376.447 270.664 C 376.447 271.074,376.267 271.521,376.048 271.657 C 375.828 271.792,375.649 272.413,375.649 273.035 C 375.649 273.672,375.387 274.266,375.050 274.396 C 374.721 274.522,374.451 275.065,374.451 275.603 C 374.451 276.140,374.316 276.640,374.152 276.713 C 373.708 276.910,372.455 279.413,372.455 280.101 C 372.455 280.428,372.186 280.965,371.856 281.295 C 371.527 281.624,371.257 282.240,371.257 282.663 C 371.257 283.087,371.107 283.433,370.923 283.433 C 370.739 283.433,370.171 284.421,369.661 285.629 C 369.150 286.836,368.582 287.824,368.398 287.824 C 368.214 287.824,368.064 288.273,368.064 288.822 C 368.064 289.443,367.838 289.820,367.465 289.820 C 367.100 289.820,366.866 290.193,366.866 290.776 C 366.866 291.301,366.597 291.834,366.267 291.961 C 365.938 292.087,365.669 292.546,365.669 292.981 C 365.669 293.416,365.220 294.256,364.671 294.848 C 364.122 295.440,363.673 296.239,363.673 296.622 C 363.673 297.006,363.403 297.423,363.074 297.550 C 362.745 297.676,362.475 298.045,362.475 298.370 C 362.475 298.695,362.026 299.445,361.477 300.038 C 360.928 300.630,360.479 301.537,360.479 302.054 C 360.479 302.623,360.243 302.994,359.880 302.994 C 359.551 302.994,359.281 303.263,359.281 303.593 C 359.281 303.922,359.105 304.192,358.890 304.192 C 358.674 304.192,358.386 304.641,358.248 305.190 C 358.110 305.739,357.747 306.188,357.442 306.188 C 357.136 306.188,356.886 306.457,356.886 306.786 C 356.886 307.116,356.707 307.385,356.487 307.385 C 356.267 307.385,356.088 307.834,356.088 308.383 C 356.088 309.004,355.862 309.381,355.489 309.381 C 355.160 309.381,354.890 309.631,354.890 309.937 C 354.890 310.243,354.621 310.597,354.291 310.723 C 353.962 310.850,353.693 311.237,353.693 311.583 C 353.693 311.930,353.244 312.630,352.695 313.139 C 352.146 313.647,351.697 314.268,351.697 314.517 C 351.697 314.766,351.427 314.970,351.098 314.970 C 350.725 314.970,350.499 315.347,350.499 315.968 C 350.499 316.589,350.273 316.966,349.900 316.966 C 349.571 316.966,349.301 317.154,349.301 317.384 C 349.301 317.614,348.852 318.219,348.303 318.728 C 347.754 319.236,347.305 319.773,347.305 319.920 C 347.305 320.066,346.811 320.704,346.208 321.335 C 344.597 323.020,344.112 323.669,344.112 324.135 C 344.112 324.364,343.842 324.551,343.513 324.551 C 343.184 324.551,342.914 324.820,342.914 325.150 C 342.914 325.479,342.645 325.749,342.315 325.749 C 341.986 325.749,341.717 325.938,341.717 326.170 C 341.717 326.750,327.589 340.918,327.011 340.918 C 326.756 340.918,326.547 341.188,326.547 341.517 C 326.547 341.846,326.353 342.116,326.117 342.116 C 325.558 342.116,323.353 344.321,323.353 344.879 C 323.353 345.116,322.988 345.309,322.542 345.309 C 322.096 345.309,321.628 345.579,321.502 345.908 C 321.375 346.238,321.087 346.507,320.861 346.507 C 320.636 346.507,320.035 346.956,319.526 347.505 C 319.017 348.054,318.413 348.503,318.183 348.503 C 317.953 348.503,317.764 348.772,317.764 349.102 C 317.764 349.438,317.408 349.701,316.954 349.701 C 316.508 349.701,316.039 349.970,315.913 350.299 C 315.786 350.629,315.498 350.898,315.273 350.898 C 315.047 350.898,314.471 351.302,313.992 351.796 C 312.972 352.850,311.855 353.622,310.878 353.950 C 310.494 354.079,310.180 354.433,310.180 354.737 C 310.180 355.041,309.910 355.289,309.581 355.289 C 309.251 355.289,308.982 355.469,308.982 355.689 C 308.982 355.908,308.617 356.088,308.171 356.088 C 307.725 356.088,307.257 356.357,307.130 356.687 C 307.004 357.016,306.650 357.285,306.345 357.285 C 306.039 357.285,305.788 357.555,305.788 357.884 C 305.788 358.230,305.428 358.483,304.936 358.483 C 304.467 358.483,303.667 358.932,303.159 359.481 C 302.650 360.030,301.950 360.479,301.603 360.479 C 301.257 360.479,300.870 360.749,300.743 361.078 C 300.617 361.407,300.195 361.677,299.807 361.677 C 299.418 361.677,298.876 361.946,298.603 362.275 C 298.329 362.605,297.858 362.874,297.556 362.874 C 297.253 362.874,297.006 363.054,297.006 363.273 C 297.006 363.493,296.749 363.673,296.436 363.673 C 296.122 363.673,295.620 363.918,295.319 364.219 C 295.019 364.519,294.377 364.891,293.894 365.044 C 293.410 365.198,293.014 365.491,293.014 365.696 C 293.014 365.900,292.668 366.068,292.244 366.068 C 291.821 366.068,291.205 366.337,290.875 366.667 C 290.546 366.996,290.084 367.265,289.849 367.265 C 289.614 367.265,289.421 367.445,289.421 367.665 C 289.421 367.884,288.972 368.064,288.423 368.064 C 287.802 368.064,287.425 368.290,287.425 368.663 C 287.425 369.037,287.047 369.261,286.415 369.261 C 285.859 369.261,285.301 369.531,285.174 369.860 C 285.048 370.190,284.515 370.459,283.989 370.459 C 283.464 370.459,283.034 370.639,283.034 370.858 C 283.034 371.078,282.579 371.257,282.023 371.257 C 281.468 371.257,280.909 371.527,280.783 371.856 C 280.657 372.186,280.123 372.455,279.598 372.455 C 279.015 372.455,278.643 372.688,278.643 373.054 C 278.643 373.473,278.220 373.653,277.233 373.653 C 276.348 373.653,275.738 373.876,275.593 374.251 C 275.467 374.581,274.944 374.850,274.432 374.850 C 273.919 374.850,273.389 375.030,273.253 375.250 C 273.118 375.469,272.703 375.650,272.332 375.651 C 271.960 375.653,271.142 375.922,270.513 376.250 C 269.884 376.578,269.115 376.846,268.804 376.846 C 268.493 376.846,268.135 377.116,268.009 377.445 C 267.866 377.816,267.259 378.044,266.412 378.044 C 265.565 378.044,264.957 378.272,264.815 378.643 C 264.665 379.033,264.044 379.242,263.031 379.242 C 262.176 379.242,261.477 379.405,261.477 379.606 C 261.477 379.806,260.759 380.091,259.882 380.239 C 259.005 380.387,258.186 380.673,258.062 380.873 C 257.938 381.074,257.331 381.238,256.712 381.238 C 256.093 381.238,255.363 381.507,255.090 381.836 C 254.809 382.175,253.939 382.435,253.088 382.435 C 252.118 382.435,251.501 382.648,251.353 383.034 C 251.191 383.456,250.531 383.633,249.114 383.633 C 248.010 383.633,247.106 383.812,247.106 384.032 C 247.106 384.251,246.310 384.431,245.338 384.431 C 244.299 384.431,243.323 384.678,242.971 385.030 C 242.596 385.405,241.615 385.629,240.348 385.629 C 238.814 385.629,238.323 385.774,238.323 386.228 C 238.323 386.705,237.733 386.826,235.409 386.826 C 233.806 386.826,232.324 386.988,232.116 387.186 C 231.907 387.385,230.313 387.614,228.572 387.697 C 226.552 387.793,225.350 388.023,225.246 388.335 C 225.130 388.681,223.758 388.822,220.513 388.822 C 216.819 388.822,215.899 388.937,215.713 389.421 C 215.515 389.939,213.417 390.020,200.200 390.020 C 186.982 390.020,184.885 389.939,184.686 389.421 C 184.499 388.935,183.558 388.822,179.687 388.822 C 176.438 388.822,174.868 388.675,174.763 388.362 C 174.671 388.085,173.297 387.825,171.328 387.711 C 169.524 387.607,167.950 387.365,167.832 387.174 C 167.714 386.983,166.281 386.826,164.647 386.826 C 162.273 386.826,161.677 386.706,161.677 386.228 C 161.677 385.774,161.186 385.629,159.652 385.629 C 158.385 385.629,157.404 385.405,157.029 385.030 C 156.679 384.680,155.704 384.431,154.686 384.431 C 153.726 384.431,152.830 384.251,152.695 384.032 C 152.559 383.812,151.560 383.633,150.475 383.633 C 148.988 383.633,148.503 383.485,148.503 383.034 C 148.503 382.613,148.078 382.435,147.077 382.435 C 146.293 382.435,145.382 382.166,145.053 381.836 C 144.720 381.504,143.744 381.238,142.857 381.238 C 141.970 381.238,140.994 380.971,140.662 380.639 C 140.332 380.309,139.537 380.040,138.894 380.040 C 138.251 380.040,137.725 379.860,137.725 379.641 C 137.725 379.421,137.297 379.242,136.775 379.242 C 136.253 379.242,135.603 378.972,135.329 378.643 C 135.056 378.313,134.337 378.044,133.733 378.044 C 133.128 378.044,132.409 377.774,132.136 377.445 C 131.862 377.116,131.144 376.846,130.539 376.846 C 129.934 376.846,129.215 376.577,128.942 376.248 C 128.669 375.918,128.118 375.649,127.719 375.649 C 127.320 375.649,126.882 375.469,126.747 375.250 C 126.611 375.030,126.081 374.850,125.568 374.850 C 125.056 374.850,124.533 374.581,124.407 374.251 C 124.262 373.876,123.652 373.653,122.767 373.653 C 121.780 373.653,121.357 373.473,121.357 373.054 C 121.357 372.714,120.999 372.455,120.530 372.455 C 120.076 372.455,119.434 372.186,119.105 371.856 C 118.775 371.527,118.159 371.257,117.736 371.257 C 117.313 371.257,116.966 371.078,116.966 370.858 C 116.966 370.639,116.517 370.459,115.968 370.459 C 115.347 370.459,114.970 370.233,114.970 369.860 C 114.970 369.486,114.592 369.261,113.960 369.261 C 113.404 369.261,112.846 368.992,112.719 368.663 C 112.593 368.333,112.060 368.064,111.534 368.064 C 111.009 368.064,110.579 367.884,110.579 367.665 C 110.579 367.445,110.149 367.265,109.624 367.265 C 109.098 367.265,108.565 366.996,108.438 366.667 C 108.312 366.337,107.934 366.068,107.597 366.068 C 107.261 366.068,106.986 365.900,106.986 365.696 C 106.986 365.491,106.590 365.198,106.106 365.044 C 105.623 364.891,104.981 364.519,104.681 364.219 C 104.380 363.918,103.878 363.673,103.564 363.673 C 103.251 363.673,102.994 363.493,102.994 363.273 C 102.994 363.054,102.725 362.874,102.395 362.874 C 102.066 362.874,101.796 362.698,101.796 362.483 C 101.796 362.267,101.355 361.980,100.815 361.845 C 100.275 361.709,99.624 361.346,99.369 361.039 C 99.113 360.731,98.648 360.479,98.335 360.479 C 98.022 360.479,97.350 360.030,96.841 359.481 C 96.333 358.932,95.533 358.483,95.064 358.483 C 94.572 358.483,94.212 358.230,94.212 357.884 C 94.212 357.555,93.961 357.285,93.655 357.285 C 93.350 357.285,92.996 357.016,92.870 356.687 C 92.743 356.357,92.275 356.088,91.829 356.088 C 91.383 356.088,91.018 355.908,91.018 355.689 C 91.018 355.469,90.749 355.289,90.419 355.289 C 90.090 355.289,89.820 355.020,89.820 354.691 C 89.820 354.361,89.551 354.092,89.222 354.092 C 88.892 354.092,88.623 353.916,88.623 353.700 C 88.623 353.485,88.174 353.196,87.625 353.058 C 87.076 352.920,86.627 352.558,86.627 352.252 C 86.627 351.947,86.357 351.697,86.028 351.697 C 85.699 351.697,85.429 351.517,85.429 351.297 C 85.429 351.078,85.179 350.898,84.873 350.898 C 84.567 350.898,84.214 350.629,84.087 350.299 C 83.961 349.970,83.492 349.701,83.046 349.701 C 82.592 349.701,82.236 349.438,82.236 349.102 C 82.236 348.772,82.049 348.503,81.821 348.503 C 81.593 348.503,80.658 347.784,79.744 346.906 C 78.830 346.028,77.760 345.309,77.365 345.309 C 76.970 345.309,76.647 345.116,76.647 344.879 C 76.647 344.434,74.492 342.116,74.078 342.116 C 73.639 342.116,58.283 326.631,58.283 326.189 C 58.283 325.947,58.014 325.749,57.685 325.749 C 57.355 325.749,57.086 325.555,57.086 325.319 C 57.086 324.760,54.881 322.555,54.322 322.555 C 54.086 322.555,53.892 322.239,53.892 321.852 C 53.892 321.466,53.443 320.665,52.894 320.073 C 52.345 319.481,51.896 318.809,51.896 318.580 C 51.896 318.351,51.627 318.164,51.297 318.164 C 50.968 318.164,50.699 317.894,50.699 317.565 C 50.699 317.236,50.429 316.966,50.100 316.966 C 49.764 316.966,49.501 316.610,49.501 316.155 C 49.501 315.709,49.232 315.241,48.902 315.114 C 48.573 314.988,48.303 314.634,48.303 314.329 C 48.303 314.023,48.124 313.772,47.904 313.772 C 47.685 313.772,47.505 313.503,47.505 313.174 C 47.505 312.844,47.236 312.575,46.906 312.575 C 46.570 312.575,46.307 312.219,46.307 311.764 C 46.307 311.318,46.038 310.850,45.709 310.723 C 45.379 310.597,45.110 310.309,45.110 310.083 C 45.110 309.857,44.661 309.256,44.112 308.747 C 43.563 308.239,43.114 307.455,43.114 307.005 C 43.114 306.545,42.852 306.188,42.515 306.188 C 42.186 306.188,41.916 305.918,41.916 305.589 C 41.916 305.259,41.647 304.990,41.317 304.990 C 40.945 304.990,40.719 304.613,40.719 303.992 C 40.719 303.443,40.539 302.994,40.319 302.994 C 40.100 302.994,39.920 302.725,39.920 302.395 C 39.920 302.066,39.651 301.796,39.321 301.796 C 38.947 301.796,38.723 301.418,38.723 300.786 C 38.723 300.230,38.453 299.672,38.124 299.546 C 37.794 299.419,37.525 298.970,37.525 298.548 C 37.525 298.125,37.255 297.676,36.926 297.550 C 36.597 297.423,36.327 297.070,36.327 296.764 C 36.327 296.458,36.148 296.208,35.928 296.208 C 35.709 296.208,35.529 295.758,35.529 295.210 C 35.529 294.589,35.303 294.212,34.930 294.212 C 34.556 294.212,34.331 293.833,34.331 293.201 C 34.331 292.645,34.062 292.087,33.733 291.961 C 33.403 291.834,33.134 291.495,33.134 291.207 C 33.134 290.574,31.857 288.077,31.437 287.891 C 31.272 287.818,31.138 287.498,31.138 287.180 C 31.138 286.862,30.868 286.498,30.539 286.372 C 30.210 286.246,29.940 285.712,29.940 285.187 C 29.940 284.604,29.707 284.232,29.341 284.232 C 28.969 284.232,28.743 283.855,28.743 283.234 C 28.743 282.685,28.586 282.236,28.394 282.236 C 28.203 282.236,27.931 281.517,27.791 280.639 C 27.650 279.760,27.358 279.042,27.141 279.042 C 26.924 279.042,26.747 278.705,26.747 278.292 C 26.747 277.880,26.477 277.319,26.148 277.046 C 25.818 276.773,25.549 276.116,25.549 275.587 C 25.549 275.058,25.279 274.522,24.950 274.396 C 24.621 274.269,24.351 273.736,24.351 273.211 C 24.351 272.685,24.172 272.255,23.952 272.255 C 23.733 272.255,23.553 271.729,23.553 271.086 C 23.553 270.443,23.283 269.648,22.954 269.319 C 22.625 268.989,22.355 268.342,22.355 267.880 C 22.355 267.419,22.086 266.937,21.756 266.811 C 21.390 266.670,21.158 266.065,21.158 265.250 C 21.158 264.518,21.002 263.823,20.811 263.705 C 20.620 263.587,20.349 262.768,20.207 261.885 C 20.066 261.002,19.773 260.279,19.556 260.279 C 19.339 260.279,19.162 259.645,19.162 258.870 C 19.162 257.985,18.939 257.374,18.563 257.230 C 18.172 257.080,17.964 256.459,17.964 255.446 C 17.964 254.331,17.795 253.892,17.365 253.892 C 16.921 253.892,16.766 253.426,16.766 252.090 C 16.766 251.099,16.597 249.977,16.389 249.595 C 16.182 249.214,15.904 248.229,15.772 247.405 C 15.640 246.582,15.361 245.908,15.152 245.908 C 14.942 245.908,14.770 244.933,14.770 243.741 C 14.770 242.347,14.557 241.360,14.172 240.975 C 13.797 240.600,13.573 239.619,13.573 238.352 C 13.573 236.818,13.428 236.327,12.974 236.327 C 12.493 236.327,12.375 235.715,12.375 233.214 C 12.375 231.501,12.206 229.929,11.999 229.721 C 11.792 229.512,11.585 228.036,11.539 226.441 C 11.493 224.845,11.213 223.073,10.917 222.503 C 10.548 221.791,10.379 219.862,10.379 216.350 C 10.379 212.335,10.250 211.106,9.780 210.636 C 9.277 210.133,9.182 208.282,9.182 199.031 C 9.182 189.513,9.263 188.024,9.780 188.024 C 10.286 188.024,10.379 187.096,10.379 182.069 C 10.379 177.699,10.510 176.071,10.872 175.950 C 11.192 175.843,11.417 174.643,11.513 172.524 C 11.595 170.729,11.822 169.261,12.018 169.261 C 12.215 169.261,12.375 167.824,12.375 166.068 C 12.375 163.495,12.492 162.874,12.974 162.874 C 13.445 162.874,13.573 162.318,13.573 160.267 C 13.573 158.318,13.724 157.602,14.172 157.430 C 14.589 157.270,14.770 156.618,14.770 155.280 C 14.770 154.224,14.953 153.299,15.177 153.224 C 15.400 153.150,15.695 152.147,15.831 150.996 C 15.968 149.844,16.234 148.902,16.423 148.902 C 16.612 148.902,16.766 148.206,16.766 147.354 C 16.766 146.465,17.021 145.595,17.365 145.309 C 17.695 145.036,17.964 144.283,17.964 143.635 C 17.964 142.988,18.234 142.188,18.563 141.859 C 18.892 141.530,19.167 140.779,19.174 140.191 C 19.181 139.603,19.451 138.773,19.773 138.347 C 20.096 137.921,20.359 137.168,20.359 136.674 C 20.359 136.180,20.539 135.665,20.758 135.529 C 20.978 135.393,21.158 134.683,21.158 133.951 C 21.158 133.136,21.390 132.531,21.756 132.391 C 22.086 132.264,22.355 131.783,22.355 131.321 C 22.355 130.860,22.625 130.212,22.954 129.883 C 23.283 129.554,23.553 128.758,23.553 128.115 C 23.553 127.472,23.733 126.946,23.952 126.946 C 24.172 126.946,24.351 126.426,24.351 125.791 C 24.351 125.133,24.609 124.538,24.950 124.407 C 25.293 124.275,25.549 123.679,25.549 123.009 C 25.549 122.340,25.804 121.744,26.148 121.612 C 26.477 121.486,26.747 120.928,26.747 120.372 C 26.747 119.816,26.907 119.361,27.102 119.361 C 27.298 119.361,27.571 118.912,27.709 118.363 C 27.847 117.814,28.136 117.365,28.351 117.365 C 28.566 117.365,28.743 116.826,28.743 116.168 C 28.743 115.369,28.942 114.970,29.341 114.970 C 29.706 114.970,29.940 114.598,29.940 114.021 C 29.940 113.499,30.210 112.848,30.539 112.575 C 30.868 112.302,31.138 111.741,31.138 111.328 C 31.138 110.916,31.314 110.579,31.529 110.579 C 31.745 110.579,32.034 110.130,32.171 109.581 C 32.309 109.032,32.582 108.583,32.778 108.583 C 32.974 108.583,33.134 108.335,33.134 108.033 C 33.134 107.730,33.403 107.259,33.733 106.986 C 34.062 106.713,34.331 106.152,34.331 105.740 C 34.331 105.327,34.508 104.990,34.723 104.990 C 34.938 104.990,35.227 104.541,35.365 103.992 C 35.503 103.443,35.776 102.994,35.971 102.994 C 36.167 102.994,36.327 102.545,36.327 101.996 C 36.327 101.375,36.554 100.998,36.926 100.998 C 37.259 100.998,37.525 100.643,37.525 100.200 C 37.525 99.760,37.660 99.396,37.824 99.390 C 37.989 99.385,38.564 98.666,39.102 97.794 C 39.640 96.921,40.224 96.208,40.400 96.208 C 40.575 96.208,40.719 95.758,40.719 95.210 C 40.719 94.589,40.945 94.212,41.317 94.212 C 41.647 94.212,41.916 93.942,41.916 93.613 C 41.916 93.283,42.084 93.014,42.288 93.014 C 42.493 93.014,42.777 92.649,42.918 92.203 C 43.060 91.757,43.611 90.922,44.143 90.348 C 44.675 89.774,45.110 88.972,45.110 88.564 C 45.110 88.157,45.379 87.824,45.709 87.824 C 46.038 87.824,46.307 87.654,46.307 87.446 C 46.307 87.237,46.756 86.582,47.305 85.990 C 47.854 85.398,48.303 84.580,48.303 84.173 C 48.303 83.766,48.573 83.433,48.902 83.433 C 49.232 83.433,49.501 83.164,49.501 82.834 C 49.501 82.505,49.770 82.236,50.100 82.236 C 50.429 82.236,50.699 81.966,50.699 81.637 C 50.699 81.307,50.875 81.038,51.090 81.038 C 51.306 81.038,51.595 80.589,51.732 80.040 C 51.870 79.491,52.143 79.042,52.339 79.042 C 52.534 79.042,52.695 78.772,52.695 78.443 C 52.695 78.114,52.868 77.844,53.080 77.844 C 53.534 77.844,55.881 75.618,55.905 75.163 C 55.914 74.991,56.453 74.410,57.103 73.871 C 57.752 73.332,58.283 72.569,58.283 72.174 C 58.283 71.780,58.553 71.457,58.882 71.457 C 59.212 71.457,59.481 71.188,59.481 70.858 C 59.481 70.529,59.750 70.259,60.080 70.259 C 60.409 70.259,60.679 70.067,60.679 69.832 C 60.679 69.279,61.694 68.263,62.247 68.263 C 62.482 68.263,62.675 67.994,62.675 67.665 C 62.675 67.335,62.944 67.066,63.273 67.066 C 63.603 67.066,63.872 66.892,63.872 66.680 C 63.872 66.182,70.580 59.481,71.079 59.481 C 71.287 59.481,71.457 59.212,71.457 58.882 C 71.457 58.553,71.699 58.283,71.995 58.283 C 72.291 58.283,72.906 57.969,73.362 57.585 C 73.818 57.201,74.743 56.439,75.419 55.893 C 76.094 55.346,76.647 54.672,76.647 54.396 C 76.647 54.119,76.851 53.892,77.100 53.892 C 77.349 53.892,77.950 53.464,78.435 52.941 C 78.920 52.418,79.704 51.867,80.177 51.716 C 80.651 51.566,81.038 51.276,81.038 51.071 C 81.038 50.866,81.307 50.699,81.637 50.699 C 81.966 50.699,82.236 50.429,82.236 50.100 C 82.236 49.770,82.439 49.501,82.689 49.501 C 82.938 49.501,83.522 49.093,83.986 48.594 C 84.450 48.096,85.504 47.273,86.327 46.765 C 87.151 46.258,87.824 45.678,87.824 45.476 C 87.824 45.275,88.094 45.110,88.423 45.110 C 88.752 45.110,89.022 44.942,89.022 44.737 C 89.022 44.533,89.426 44.238,89.920 44.083 C 90.414 43.928,91.214 43.377,91.698 42.859 C 92.181 42.340,92.860 41.916,93.207 41.916 C 93.554 41.916,93.941 41.647,94.067 41.317 C 94.194 40.988,94.547 40.719,94.853 40.719 C 95.159 40.719,95.409 40.558,95.409 40.363 C 95.409 40.167,95.858 39.894,96.407 39.756 C 96.956 39.618,97.405 39.330,97.405 39.114 C 97.405 38.899,97.675 38.723,98.004 38.723 C 98.333 38.723,98.603 38.453,98.603 38.124 C 98.603 37.751,98.980 37.525,99.601 37.525 C 100.150 37.525,100.599 37.365,100.599 37.169 C 100.599 36.973,101.048 36.700,101.597 36.563 C 102.146 36.425,102.595 36.136,102.595 35.921 C 102.595 35.705,102.870 35.529,103.206 35.529 C 103.542 35.529,103.921 35.259,104.047 34.930 C 104.174 34.601,104.707 34.331,105.232 34.331 C 105.815 34.331,106.188 34.098,106.188 33.733 C 106.188 33.360,106.565 33.134,107.186 33.134 C 107.735 33.134,108.185 32.999,108.188 32.834 C 108.190 32.670,109.178 32.096,110.383 31.560 C 111.589 31.024,112.575 30.441,112.575 30.263 C 112.575 30.085,112.844 29.940,113.174 29.940 C 113.503 29.940,113.772 29.671,113.772 29.341 C 113.772 28.942,114.172 28.743,114.970 28.743 C 115.629 28.743,116.168 28.563,116.168 28.343 C 116.168 28.124,116.604 27.944,117.137 27.944 C 117.670 27.944,118.346 27.705,118.638 27.413 C 118.930 27.120,119.662 26.758,120.263 26.607 C 120.865 26.456,121.357 26.156,121.357 25.940 C 121.357 25.725,121.812 25.549,122.368 25.549 C 122.924 25.549,123.482 25.279,123.608 24.950 C 123.735 24.621,124.268 24.351,124.793 24.351 C 125.319 24.351,125.749 24.172,125.749 23.952 C 125.749 23.733,126.275 23.553,126.918 23.553 C 127.561 23.553,128.356 23.283,128.685 22.954 C 129.015 22.625,129.662 22.355,130.124 22.355 C 130.585 22.355,131.067 22.086,131.193 21.756 C 131.334 21.390,131.939 21.158,132.754 21.158 C 133.486 21.158,134.196 20.978,134.331 20.758 C 134.467 20.539,134.905 20.359,135.304 20.359 C 135.703 20.359,136.254 20.090,136.527 19.760 C 136.800 19.431,137.636 19.162,138.385 19.162 C 139.226 19.162,139.833 18.933,139.975 18.563 C 140.132 18.155,140.770 17.964,141.971 17.964 C 143.173 17.964,143.811 17.773,143.967 17.365 C 144.117 16.975,144.738 16.766,145.751 16.766 C 146.606 16.766,147.305 16.610,147.305 16.420 C 147.305 16.229,148.065 15.971,148.993 15.847 C 149.922 15.722,150.745 15.429,150.823 15.195 C 150.901 14.962,151.938 14.770,153.127 14.770 C 154.783 14.770,155.289 14.630,155.289 14.172 C 155.289 13.706,155.823 13.573,157.697 13.573 C 159.469 13.573,160.166 13.415,160.335 12.974 C 160.505 12.529,161.214 12.375,163.093 12.375 C 164.484 12.375,165.733 12.196,165.868 11.976 C 166.004 11.756,167.349 11.577,168.857 11.577 C 170.763 11.577,171.782 11.394,172.198 10.978 C 172.647 10.530,173.752 10.379,176.602 10.379 C 179.440 10.379,180.539 10.231,180.922 9.796 C 181.706 8.907,218.131 8.892,219.019 9.780 M136.926 73.653 C 136.926 74.274,137.152 74.651,137.525 74.651 C 137.957 74.651,138.124 75.094,138.124 76.248 C 138.124 77.126,138.303 77.844,138.523 77.844 C 138.743 77.844,138.922 78.544,138.922 79.398 C 138.922 80.412,139.131 81.032,139.521 81.182 C 139.914 81.333,140.120 81.956,140.120 82.993 C 140.120 83.866,140.388 84.842,140.719 85.173 C 141.048 85.502,141.317 86.312,141.317 86.974 C 141.317 87.635,141.497 88.287,141.717 88.423 C 141.936 88.559,142.116 89.164,142.116 89.768 C 142.116 90.371,142.380 91.214,142.702 91.640 C 143.024 92.066,143.294 92.785,143.301 93.237 C 143.308 93.689,143.577 94.408,143.899 94.834 C 144.222 95.260,144.491 96.198,144.498 96.919 C 144.506 97.706,144.750 98.320,145.110 98.458 C 145.500 98.608,145.709 99.229,145.709 100.242 C 145.709 101.097,145.888 101.796,146.108 101.796 C 146.327 101.796,146.507 102.322,146.507 102.965 C 146.507 103.608,146.776 104.404,147.106 104.733 C 147.442 105.070,147.705 106.045,147.705 106.958 C 147.705 108.136,147.869 108.583,148.303 108.583 C 148.736 108.583,148.902 109.026,148.902 110.180 C 148.902 111.333,149.069 111.776,149.501 111.776 C 149.953 111.776,150.100 112.264,150.100 113.772 C 150.100 114.870,150.279 115.768,150.499 115.768 C 150.719 115.768,150.898 116.273,150.898 116.890 C 150.898 117.506,151.162 118.360,151.484 118.786 C 151.807 119.212,152.076 120.042,152.083 120.630 C 152.090 121.218,152.365 121.969,152.695 122.298 C 153.024 122.628,153.293 123.539,153.293 124.323 C 153.293 125.324,153.472 125.749,153.892 125.749 C 154.323 125.749,154.491 126.189,154.491 127.322 C 154.491 128.187,154.671 129.006,154.890 129.142 C 155.143 129.298,155.289 134.110,155.289 142.263 C 155.289 158.073,154.532 156.542,162.278 156.398 L 168.263 156.287 168.369 143.373 C 168.456 132.717,168.578 130.310,169.067 129.611 C 169.394 129.146,169.661 128.366,169.661 127.879 C 169.661 127.392,169.840 126.882,170.060 126.747 C 170.279 126.611,170.459 125.901,170.459 125.169 C 170.459 124.354,170.691 123.749,171.058 123.608 C 171.412 123.472,171.657 122.872,171.657 122.140 C 171.657 121.458,171.926 120.632,172.255 120.302 C 172.585 119.973,172.854 119.188,172.854 118.558 C 172.854 117.928,173.034 117.301,173.253 117.166 C 173.473 117.030,173.653 116.295,173.653 115.533 C 173.653 114.669,173.878 114.060,174.251 113.917 C 174.638 113.769,174.850 113.151,174.850 112.176 C 174.850 111.200,175.063 110.583,175.449 110.434 C 175.820 110.292,176.048 109.685,176.048 108.838 C 176.048 107.991,176.276 107.383,176.647 107.241 C 177.023 107.097,177.246 106.486,177.246 105.601 C 177.246 104.826,177.425 104.192,177.645 104.192 C 177.864 104.192,178.044 103.672,178.044 103.037 C 178.044 102.378,178.301 101.783,178.643 101.652 C 179.013 101.510,179.242 100.903,179.242 100.061 C 179.242 99.313,179.511 98.477,179.840 98.204 C 180.170 97.930,180.445 97.235,180.452 96.658 C 180.459 96.081,180.728 95.260,181.051 94.834 C 181.373 94.408,181.637 93.554,181.637 92.938 C 181.637 92.321,181.816 91.816,182.036 91.816 C 182.255 91.816,182.435 91.182,182.435 90.407 C 182.435 89.522,182.658 88.911,183.034 88.767 C 183.420 88.619,183.633 88.001,183.633 87.026 C 183.633 86.051,183.845 85.433,184.232 85.285 C 184.586 85.149,184.830 84.549,184.830 83.816 C 184.830 83.135,185.100 82.308,185.429 81.979 C 185.758 81.650,186.028 80.854,186.028 80.211 C 186.028 79.568,186.208 79.042,186.427 79.042 C 186.647 79.042,186.826 78.323,186.826 77.445 C 186.826 76.292,186.993 75.848,187.425 75.848 C 187.858 75.848,188.024 75.404,188.024 74.244 L 188.024 72.639 179.341 72.747 L 170.659 72.854 170.525 73.852 C 170.452 74.401,170.227 75.021,170.026 75.230 C 169.825 75.438,169.661 76.387,169.661 77.338 C 169.661 78.507,169.467 79.141,169.062 79.297 C 168.645 79.457,168.463 80.106,168.463 81.431 C 168.463 82.637,168.243 83.518,167.864 83.832 C 167.501 84.134,167.265 85.008,167.265 86.053 C 167.265 87.001,167.086 87.888,166.866 88.024 C 166.647 88.160,166.467 89.139,166.467 90.200 C 166.467 91.547,166.286 92.200,165.868 92.360 C 165.448 92.521,165.269 93.176,165.269 94.556 C 165.269 95.935,165.091 96.590,164.671 96.751 C 164.248 96.913,164.072 97.572,164.072 98.989 C 164.072 100.094,163.892 100.998,163.673 100.998 C 163.453 100.998,163.273 101.267,163.273 101.597 C 163.273 101.929,162.919 102.196,162.475 102.196 C 161.784 102.196,161.677 101.929,161.677 100.223 C 161.677 99.138,161.497 98.140,161.277 98.004 C 161.058 97.868,160.878 97.049,160.878 96.184 C 160.878 95.052,160.710 94.611,160.279 94.611 C 159.820 94.611,159.681 94.101,159.681 92.415 C 159.681 90.730,159.542 90.220,159.082 90.220 C 158.622 90.220,158.483 89.709,158.483 88.024 C 158.483 86.816,158.303 85.828,158.084 85.828 C 157.864 85.828,157.685 85.144,157.685 84.308 C 157.685 83.472,157.421 82.439,157.099 82.012 C 156.776 81.586,156.507 80.648,156.500 79.928 C 156.492 79.141,156.248 78.526,155.888 78.388 C 155.458 78.223,155.289 77.551,155.289 76.005 C 155.289 74.358,155.149 73.852,154.691 73.852 C 154.361 73.852,154.092 73.583,154.092 73.253 C 154.092 72.740,152.872 72.655,145.509 72.655 L 136.926 72.655 136.926 73.653 M198.403 92.814 C 198.130 93.144,197.479 93.413,196.957 93.413 C 196.380 93.413,196.008 93.648,196.008 94.012 C 196.008 94.341,195.739 94.611,195.409 94.611 C 195.080 94.611,194.810 94.790,194.810 95.010 C 194.810 95.230,194.541 95.409,194.212 95.409 C 193.882 95.409,193.613 95.679,193.613 96.008 C 193.613 96.337,193.322 96.607,192.967 96.607 C 192.128 96.607,189.222 99.514,189.222 100.352 C 189.222 100.707,188.952 100.998,188.623 100.998 C 188.258 100.998,188.024 101.370,188.024 101.947 C 188.024 102.469,187.754 103.120,187.425 103.393 C 187.044 103.709,186.826 104.591,186.826 105.814 C 186.826 106.872,186.647 107.848,186.427 107.984 C 186.172 108.142,186.028 113.976,186.028 124.175 C 186.028 134.539,186.168 140.120,186.427 140.120 C 186.647 140.120,186.826 141.073,186.826 142.239 C 186.826 143.485,187.068 144.678,187.412 145.133 C 187.735 145.559,188.004 146.312,188.011 146.806 C 188.019 147.333,188.272 147.705,188.623 147.705 C 188.959 147.705,189.222 148.061,189.222 148.516 C 189.222 148.962,189.491 149.430,189.820 149.556 C 190.150 149.683,190.419 149.953,190.419 150.157 C 190.419 150.717,193.925 154.010,194.824 154.296 C 195.255 154.433,195.609 154.712,195.609 154.917 C 195.609 155.122,196.128 155.289,196.764 155.289 C 197.422 155.289,198.017 155.547,198.148 155.888 C 198.485 156.766,207.655 156.766,208.383 155.888 C 208.657 155.559,209.232 155.289,209.661 155.289 C 210.477 155.289,213.972 152.078,213.972 151.329 C 213.972 151.092,214.150 150.898,214.367 150.898 C 214.974 150.898,216.367 149.585,216.367 149.013 C 216.367 148.733,216.512 148.503,216.690 148.503 C 217.278 148.503,218.363 145.466,218.363 143.821 C 218.363 142.749,218.566 142.123,218.962 141.971 C 219.481 141.772,219.561 139.485,219.561 124.750 C 219.561 110.016,219.481 107.729,218.962 107.530 C 218.544 107.369,218.363 106.717,218.363 105.370 C 218.363 104.309,218.184 103.329,217.964 103.194 C 217.745 103.058,217.565 102.521,217.565 102.001 C 217.565 101.481,217.295 100.786,216.966 100.456 C 216.637 100.127,216.367 99.705,216.367 99.518 C 216.367 99.079,214.879 97.804,214.367 97.804 C 214.150 97.804,213.972 97.611,213.972 97.374 C 213.972 96.816,211.767 94.611,211.208 94.611 C 210.972 94.611,210.778 94.341,210.778 94.012 C 210.778 93.647,210.406 93.413,209.823 93.413 C 209.298 93.413,208.764 93.144,208.638 92.814 C 208.452 92.328,207.512 92.216,203.654 92.216 C 199.915 92.216,198.794 92.343,198.403 92.814 M226.846 92.480 C 226.245 92.722,226.105 147.685,226.703 148.323 C 226.899 148.532,227.137 149.860,227.233 151.274 C 227.333 152.743,227.608 153.913,227.875 154.002 C 228.133 154.088,228.343 154.413,228.343 154.724 C 228.343 155.035,228.613 155.289,228.942 155.289 C 229.271 155.289,229.541 155.559,229.541 155.888 C 229.541 156.383,230.274 156.487,233.745 156.487 C 237.114 156.487,237.995 156.368,238.179 155.888 C 238.305 155.559,238.756 155.289,239.181 155.289 C 240.061 155.289,240.327 155.098,243.557 152.135 C 244.850 150.949,245.908 149.736,245.908 149.440 C 245.908 149.144,246.075 148.902,246.278 148.902 C 246.482 148.902,246.730 148.588,246.831 148.204 C 246.931 147.819,247.034 149.081,247.059 151.008 L 247.106 154.511 253.393 154.401 L 259.681 154.291 259.783 123.253 L 259.885 92.216 253.495 92.216 L 247.106 92.216 247.106 112.925 C 247.106 130.847,247.025 133.702,246.507 134.132 C 246.178 134.405,245.908 134.787,245.908 134.979 C 245.908 135.172,245.190 136.028,244.311 136.880 C 243.433 137.732,242.715 138.630,242.715 138.875 C 242.715 139.121,242.445 139.321,242.116 139.321 C 241.786 139.321,241.517 139.514,241.517 139.749 C 241.517 139.984,241.248 140.446,240.918 140.776 C 240.386 141.308,240.319 141.305,240.319 140.747 C 240.319 140.402,240.050 140.120,239.721 140.120 C 239.195 140.120,239.122 137.192,239.122 116.168 L 239.122 92.216 233.234 92.247 C 229.995 92.264,227.121 92.369,226.846 92.480 M205.602 108.597 L 206.786 109.808 206.786 124.751 L 206.786 139.694 205.376 141.104 C 203.421 143.059,200.000 142.951,200.000 140.934 C 200.000 140.692,199.731 140.391,199.401 140.264 C 198.680 139.987,198.475 109.381,199.194 109.381 C 199.409 109.381,199.698 108.932,199.836 108.383 C 200.240 106.773,203.954 106.911,205.602 108.597 M127.090 174.651 C 126.935 175.056,126.300 175.250,125.131 175.250 C 124.179 175.250,123.289 175.429,123.154 175.649 C 123.018 175.868,122.571 176.048,122.161 176.048 C 121.750 176.048,121.145 176.317,120.816 176.647 C 120.486 176.976,119.839 177.246,119.377 177.246 C 118.916 177.246,118.434 177.515,118.308 177.844 C 118.182 178.174,117.648 178.443,117.123 178.443 C 116.540 178.443,116.168 178.676,116.168 179.042 C 116.168 179.387,115.807 179.641,115.315 179.641 C 114.846 179.641,114.066 180.069,113.581 180.592 C 113.096 181.115,112.312 181.666,111.839 181.817 C 111.365 181.967,110.978 182.257,110.978 182.462 C 110.978 182.667,110.709 182.834,110.379 182.834 C 110.050 182.834,109.780 183.104,109.780 183.433 C 109.780 183.762,109.585 184.032,109.346 184.032 C 108.816 184.032,105.389 187.502,105.389 188.039 C 105.389 188.250,105.120 188.423,104.790 188.423 C 104.418 188.423,104.192 188.800,104.192 189.421 C 104.192 190.042,103.965 190.419,103.593 190.419 C 103.263 190.419,102.994 190.590,102.994 190.798 C 102.994 191.006,102.545 191.661,101.996 192.253 C 101.447 192.846,100.998 193.644,100.998 194.028 C 100.998 194.411,100.729 194.828,100.399 194.955 C 100.070 195.081,99.800 195.620,99.800 196.152 C 99.800 196.685,99.531 197.224,99.202 197.350 C 98.872 197.476,98.603 197.934,98.603 198.367 C 98.603 198.800,98.423 199.266,98.204 199.401 C 97.984 199.537,97.804 200.247,97.804 200.979 C 97.804 201.794,97.572 202.399,97.206 202.540 C 96.785 202.701,96.607 203.356,96.607 204.735 C 96.607 206.114,96.428 206.770,96.008 206.931 C 95.483 207.132,95.409 210.718,95.409 235.867 C 95.409 260.896,95.486 264.637,96.008 265.070 C 96.352 265.355,96.607 266.226,96.607 267.115 C 96.607 268.225,96.776 268.663,97.206 268.663 C 97.637 268.663,97.804 269.104,97.804 270.236 C 97.804 271.101,97.984 271.920,98.204 272.056 C 98.423 272.192,98.603 272.741,98.603 273.277 C 98.603 273.877,98.833 274.251,99.202 274.251 C 99.576 274.251,99.800 274.630,99.800 275.262 C 99.800 275.818,100.070 276.376,100.399 276.502 C 100.729 276.629,100.998 277.162,100.998 277.687 C 100.998 278.213,101.166 278.643,101.370 278.643 C 101.575 278.643,101.869 279.047,102.025 279.541 C 102.180 280.035,102.731 280.835,103.249 281.318 C 103.767 281.802,104.192 282.386,104.192 282.616 C 104.192 282.846,104.461 283.034,104.790 283.034 C 105.120 283.034,105.389 283.226,105.389 283.462 C 105.389 284.014,106.405 285.030,106.958 285.030 C 107.193 285.030,107.385 285.299,107.385 285.629 C 107.385 285.958,107.655 286.228,107.984 286.228 C 108.313 286.228,108.583 286.497,108.583 286.826 C 108.583 287.156,108.852 287.425,109.182 287.425 C 109.511 287.425,109.780 287.618,109.780 287.853 C 109.780 288.287,110.752 289.421,111.124 289.421 C 111.236 289.421,111.918 289.960,112.639 290.619 C 113.360 291.277,114.103 291.816,114.289 291.816 C 114.475 291.816,114.897 292.086,115.227 292.415 C 115.556 292.745,116.172 293.014,116.595 293.014 C 117.019 293.014,117.365 293.194,117.365 293.413 C 117.365 293.633,117.814 293.812,118.363 293.812 C 118.984 293.812,119.361 294.039,119.361 294.411 C 119.361 294.805,119.756 295.010,120.516 295.010 C 121.174 295.010,121.770 295.267,121.901 295.609 C 122.044 295.981,122.652 296.208,123.507 296.208 C 124.264 296.208,124.955 296.421,125.042 296.683 C 125.135 296.963,126.297 297.228,127.870 297.328 C 129.338 297.422,130.539 297.657,130.539 297.851 C 130.539 298.361,285.713 298.315,286.028 297.804 C 286.164 297.585,287.128 297.405,288.171 297.405 C 289.220 297.405,290.413 297.143,290.842 296.819 C 291.268 296.497,292.098 296.227,292.686 296.220 C 293.274 296.213,294.025 295.938,294.354 295.609 C 294.683 295.279,295.331 295.010,295.792 295.010 C 296.254 295.010,296.735 294.741,296.862 294.411 C 296.988 294.082,297.521 293.812,298.047 293.812 C 298.572 293.812,299.002 293.636,299.002 293.421 C 299.002 293.205,299.451 292.916,300.000 292.779 C 300.549 292.641,300.998 292.368,300.998 292.172 C 300.998 291.977,301.273 291.816,301.609 291.816 C 301.946 291.816,302.324 291.547,302.450 291.218 C 302.577 290.888,302.853 290.619,303.063 290.619 C 303.894 290.619,307.784 287.329,307.784 286.627 C 307.784 286.407,308.054 286.228,308.383 286.228 C 308.713 286.228,308.982 285.958,308.982 285.629 C 308.982 285.299,309.207 285.028,309.481 285.025 C 309.912 285.021,311.654 282.806,312.140 281.644 C 312.230 281.429,312.814 280.805,313.437 280.258 C 314.061 279.711,314.571 278.854,314.571 278.354 C 314.571 277.854,314.750 277.445,314.970 277.445 C 315.190 277.445,315.369 277.195,315.369 276.889 C 315.369 276.583,315.639 276.230,315.968 276.103 C 316.297 275.977,316.567 275.530,316.567 275.111 C 316.567 274.692,316.836 274.126,317.166 273.852 C 317.495 273.579,317.764 272.838,317.764 272.207 C 317.764 271.575,317.942 271.058,318.159 271.058 C 318.376 271.058,318.669 270.335,318.810 269.452 C 318.951 268.569,319.223 267.750,319.414 267.632 C 319.604 267.514,319.760 266.280,319.760 264.889 C 319.760 263.010,319.914 262.302,320.359 262.131 C 320.883 261.930,320.958 258.604,320.958 235.541 C 320.958 212.377,320.886 209.182,320.359 209.182 C 319.889 209.182,319.760 208.630,319.760 206.610 C 319.760 205.196,319.581 203.928,319.361 203.792 C 319.142 203.657,318.962 203.142,318.962 202.648 C 318.962 202.154,318.698 201.401,318.376 200.975 C 318.054 200.548,317.784 199.790,317.777 199.289 C 317.770 198.788,317.495 198.275,317.166 198.148 C 316.836 198.022,316.567 197.489,316.567 196.963 C 316.567 196.380,316.334 196.008,315.968 196.008 C 315.639 196.008,315.369 195.676,315.369 195.271 C 315.369 194.261,314.374 192.351,313.173 191.055 C 312.625 190.463,312.176 189.808,312.176 189.600 C 312.176 189.392,311.906 189.222,311.577 189.222 C 311.248 189.222,310.978 189.034,310.978 188.806 C 310.978 188.338,310.811 188.115,308.665 185.729 C 307.826 184.795,306.835 184.032,306.464 184.032 C 306.092 184.032,305.788 183.762,305.788 183.433 C 305.788 183.104,305.519 182.834,305.190 182.834 C 304.860 182.834,304.591 182.565,304.591 182.236 C 304.591 181.906,304.321 181.637,303.992 181.637 C 303.663 181.637,303.393 181.461,303.393 181.245 C 303.393 181.030,302.944 180.741,302.395 180.603 C 301.846 180.465,301.397 180.192,301.397 179.997 C 301.397 179.801,301.147 179.641,300.841 179.641 C 300.535 179.641,300.182 179.371,300.055 179.042 C 299.929 178.713,299.483 178.443,299.063 178.443 C 298.644 178.443,298.078 178.174,297.804 177.844 C 297.531 177.515,296.970 177.246,296.558 177.246 C 296.146 177.246,295.808 177.068,295.808 176.851 C 295.808 176.634,295.090 176.342,294.212 176.201 C 293.333 176.061,292.615 175.789,292.615 175.598 C 292.615 175.406,291.915 175.250,291.061 175.250 C 290.048 175.250,289.427 175.041,289.277 174.651 C 289.074 174.121,279.694 174.052,208.184 174.052 C 136.673 174.052,127.294 174.121,127.090 174.651 M166.467 200.599 L 166.467 204.391 161.510 204.391 C 158.783 204.391,156.268 204.500,155.921 204.634 C 155.352 204.852,155.289 208.354,155.289 240.162 L 155.289 275.449 152.096 275.449 L 148.902 275.449 148.902 240.162 C 148.902 208.354,148.840 204.852,148.271 204.634 C 147.923 204.500,145.408 204.391,142.682 204.391 L 137.725 204.391 137.725 200.599 L 137.725 196.806 152.096 196.806 L 166.467 196.806 166.467 200.599 M216.367 208.550 C 216.367 215.009,216.476 220.578,216.610 220.925 C 216.873 221.611,218.363 221.809,218.363 221.158 C 218.363 220.938,218.567 220.758,218.816 220.758 C 219.066 220.758,219.661 220.354,220.140 219.860 C 221.160 218.807,222.277 218.034,223.253 217.706 C 223.638 217.577,223.952 217.223,223.952 216.920 C 223.952 216.541,224.455 216.367,225.549 216.367 C 226.427 216.367,227.146 216.188,227.146 215.968 C 227.146 215.749,227.685 215.569,228.343 215.569 C 229.002 215.569,229.541 215.749,229.541 215.968 C 229.541 216.188,230.061 216.367,230.696 216.367 C 231.354 216.367,231.950 216.625,232.080 216.966 C 232.207 217.295,232.675 217.565,233.121 217.565 C 233.576 217.565,233.932 217.828,233.932 218.164 C 233.932 218.493,234.202 218.762,234.531 218.762 C 234.904 218.762,235.130 219.139,235.130 219.760 C 235.130 220.309,235.309 220.758,235.529 220.758 C 235.749 220.758,235.928 221.393,235.928 222.168 C 235.928 223.053,236.151 223.664,236.527 223.808 C 237.419 224.150,237.407 267.259,236.514 268.440 C 236.192 268.866,235.928 269.629,235.928 270.136 C 235.928 270.643,235.749 271.058,235.529 271.058 C 235.309 271.058,235.130 271.287,235.130 271.568 C 235.130 272.140,233.737 273.453,233.129 273.453 C 232.912 273.453,232.735 273.633,232.735 273.852 C 232.735 274.072,232.370 274.251,231.924 274.251 C 231.478 274.251,231.009 274.521,230.883 274.850 C 230.718 275.281,230.044 275.449,228.488 275.449 C 226.931 275.449,226.258 275.281,226.092 274.850 C 225.966 274.521,225.433 274.251,224.907 274.251 C 224.382 274.251,223.952 274.072,223.952 273.852 C 223.952 273.633,223.593 273.453,223.154 273.453 C 222.322 273.453,220.758 272.150,220.758 271.457 C 220.758 271.238,220.554 271.058,220.303 271.058 C 220.053 271.058,219.630 270.759,219.363 270.394 C 218.443 269.136,217.565 270.039,217.565 272.243 L 217.565 274.251 213.174 274.251 L 208.782 274.251 208.782 235.529 L 208.782 196.806 212.575 196.806 L 216.367 196.806 216.367 208.550 M267.442 217.565 C 269.147 217.565,269.837 217.726,270.005 218.164 C 270.131 218.493,270.586 218.762,271.016 218.762 C 271.446 218.762,272.152 219.212,272.583 219.760 C 273.015 220.309,273.567 220.758,273.810 220.758 C 274.053 220.758,274.251 221.028,274.251 221.357 C 274.251 221.687,274.521 221.956,274.850 221.956 C 275.283 221.956,275.449 222.400,275.449 223.553 C 275.449 224.431,275.629 225.150,275.848 225.150 C 276.068 225.150,276.248 226.054,276.248 227.158 C 276.248 228.575,276.424 229.234,276.846 229.397 C 277.350 229.590,277.445 230.855,277.445 237.368 L 277.445 245.110 267.665 245.110 L 257.884 245.110 257.884 255.289 C 257.884 264.072,257.966 265.469,258.483 265.469 C 258.842 265.469,259.082 265.838,259.082 266.390 C 259.082 267.075,259.475 267.485,260.613 267.987 C 262.214 268.693,266.267 268.922,266.267 268.307 C 266.267 268.111,266.672 267.849,267.166 267.724 C 268.515 267.384,269.868 264.202,269.864 261.377 L 269.860 259.082 273.653 259.082 L 277.445 259.082 277.432 261.776 C 277.424 263.510,277.211 264.747,276.834 265.246 C 276.511 265.672,276.248 266.436,276.248 266.943 C 276.248 267.450,276.068 267.864,275.848 267.864 C 275.629 267.864,275.449 268.240,275.449 268.699 C 275.449 269.735,271.674 273.453,270.621 273.453 C 270.203 273.453,269.860 273.633,269.860 273.852 C 269.860 274.072,269.065 274.251,268.092 274.251 C 267.053 274.251,266.078 274.498,265.726 274.850 C 265.354 275.222,264.374 275.449,263.145 275.449 C 261.752 275.449,261.095 275.271,260.933 274.850 C 260.789 274.474,260.179 274.251,259.294 274.251 C 258.519 274.251,257.884 274.072,257.884 273.852 C 257.884 273.633,257.345 273.453,256.687 273.453 C 256.028 273.453,255.489 273.252,255.489 273.007 C 255.489 272.762,254.770 271.864,253.892 271.012 C 253.014 270.159,252.295 269.187,252.295 268.850 C 252.295 268.514,252.026 268.135,251.697 268.009 C 251.367 267.882,251.098 267.364,251.098 266.857 C 251.098 266.350,250.873 265.860,250.599 265.768 C 250.210 265.639,250.100 261.685,250.100 247.791 C 250.100 234.074,250.215 229.865,250.599 229.481 C 250.873 229.207,251.098 228.120,251.098 227.066 C 251.098 225.629,251.248 225.150,251.697 225.150 C 252.062 225.150,252.295 224.777,252.295 224.194 C 252.295 223.669,252.565 223.136,252.894 223.009 C 253.224 222.883,253.495 222.549,253.497 222.268 C 253.499 221.987,254.069 221.307,254.764 220.758 C 255.460 220.210,256.254 219.536,256.529 219.261 C 256.804 218.987,257.317 218.762,257.669 218.762 C 258.021 218.762,258.412 218.493,258.538 218.164 C 258.706 217.727,259.392 217.565,261.072 217.565 C 262.674 217.565,263.533 217.375,263.893 216.941 C 264.363 216.375,264.444 216.375,264.760 216.941 C 265.015 217.396,265.742 217.565,267.442 217.565 M176.048 242.116 C 176.048 262.835,176.135 266.667,176.604 266.667 C 176.910 266.667,177.263 266.936,177.390 267.265 C 177.566 267.724,178.319 267.864,180.598 267.864 C 182.713 267.864,183.749 267.691,184.175 267.265 C 184.504 266.936,184.971 266.667,185.214 266.667 C 185.456 266.667,185.757 266.397,185.884 266.068 C 186.010 265.739,186.453 265.469,186.869 265.469 C 187.285 265.469,187.625 265.302,187.625 265.097 C 187.625 264.892,187.984 264.610,188.423 264.471 C 189.210 264.221,189.222 263.867,189.222 240.891 L 189.222 217.565 193.014 217.565 L 196.806 217.565 196.806 246.507 L 196.806 275.449 192.415 275.449 L 188.024 275.449 188.024 271.657 C 188.024 267.878,188.020 267.864,187.026 267.864 C 186.405 267.864,186.028 268.090,186.028 268.463 C 186.028 268.792,185.834 269.062,185.597 269.062 C 185.036 269.062,181.637 272.461,181.637 273.022 C 181.637 273.259,181.198 273.453,180.662 273.453 C 180.126 273.453,179.577 273.633,179.441 273.852 C 179.305 274.072,178.840 274.251,178.407 274.251 C 177.974 274.251,177.516 274.521,177.390 274.850 C 177.130 275.526,172.854 275.736,172.854 275.072 C 172.854 274.865,172.315 274.377,171.657 273.988 C 170.998 273.599,170.459 273.050,170.459 272.768 C 170.459 272.486,170.279 272.255,170.060 272.255 C 169.840 272.255,169.661 271.918,169.661 271.506 C 169.661 271.094,169.391 270.533,169.062 270.259 C 168.541 269.827,168.463 266.376,168.463 243.664 L 168.463 217.565 172.255 217.565 L 176.048 217.565 176.048 242.116 M219.872 222.455 C 219.077 223.184,217.865 223.941,217.066 224.210 C 216.412 224.429,216.368 225.798,216.372 245.456 L 216.376 266.467 217.969 267.230 C 218.844 267.649,219.561 268.143,219.561 268.328 C 219.561 268.512,221.207 268.663,223.218 268.663 L 226.876 268.663 228.208 267.166 L 229.540 265.669 229.541 245.808 C 229.541 224.558,229.522 224.351,227.545 224.351 C 227.325 224.351,227.146 224.174,227.146 223.957 C 227.146 222.190,221.445 221.013,219.872 222.455 M259.348 224.617 C 259.202 224.764,259.082 225.463,259.082 226.172 C 259.082 226.948,258.844 227.551,258.483 227.689 C 257.989 227.879,257.884 228.933,257.884 233.731 L 257.884 239.542 263.772 239.432 L 269.661 239.321 269.772 234.224 C 269.866 229.946,269.786 229.088,269.273 228.891 C 268.879 228.740,268.663 228.139,268.663 227.192 C 268.663 224.841,267.745 224.351,263.335 224.351 C 261.289 224.351,259.494 224.471,259.348 224.617 " stroke="none" fill="#c2c3c5" fill-rule="evenodd"></path></g></svg>