<?xml version="1.0" encoding="utf-8"?>
<!-- Generator: Adobe Illustrator 16.0.0, SVG Export Plug-In . SVG Version: 6.00 Build 0)  -->
<!DOCTYPE svg PUBLIC "-//W3C//DTD SVG 1.1//EN" "http://www.w3.org/Graphics/SVG/1.1/DTD/svg11.dtd">
<svg version="1.1" id="Layer_1" xmlns="http://www.w3.org/2000/svg" xmlns:xlink="http://www.w3.org/1999/xlink" x="0px" y="0px"
	 width="612px" height="792px" viewBox="0 0 612 792" enable-background="new 0 0 612 792" xml:space="preserve">
<path fill-rule="evenodd" clip-rule="evenodd" fill="#B9B9B9" stroke="#BAB8B8" stroke-width="0.75" stroke-miterlimit="10" d="
	M261.934,216.08l-13.894,52.769h-1.39l-14.574-52.769h-22.656l28.747,87.502v36.813h16.499v-39.24l30.117-85.076H261.934z
	 M333.815,273.584c0-7.449-2.478-14.754-6.839-19.034c-5.049-4.924-7.567-7.788-15.837-7.788c-9.09,0-11.609,3.367-16.992,7.788
	c-5.391,4.509-7.761,10.92-7.761,18.435v40.825c0,8.302,2.65,14.877,7.867,19.829c5.231,4.839,7.755,7.264,16.452,7.264
	c9.043,0,10.199-2.379,15.436-7.056c5.13-4.716,7.674-11.271,7.674-19.62V273.584z M397.49,246.848h-15.97v62.284
	c-1.877,2.146-10.219,13.17-11.709,13.17c-1.843,0-2.204-0.503-3.06-1.546c-0.835-1.023-1.262-2.668-1.262-4.982v-68.925h-15.983
	v75.623c0,5.864,0.507,14.402,3.713,17.572c2.184,2.153,9.064,2.543,15.329-2.127c4.81-3.573,8.764-8.558,12.972-16.014v16.575
	h15.97V246.848z M493.307,435.03c0-35.273-28.594-63.87-63.948-63.87H207.087c-35.328,0-63.976,28.596-63.976,63.87v59.173
	c0,35.216,28.648,63.85,63.976,63.85h222.271c35.354,0,63.948-28.634,63.948-63.85V435.03z M405.186,526.764
	c-7.313,0-12.999-2.23-17.187-6.783c-4.167-4.383-6.285-10.58-6.285-18.445V464.8c0-7.038,2.331-20.038,6.907-24.421
	c4.636-4.533,10.473-6.705,17.714-6.705c7.46,0,13.172,2.028,17.079,6.118c4.061,4.214,6.025,17.305,6.025,25.008v15.504h-31.034
	v20.683c0,4.345,0.575,7.286,1.644,8.976c1.096,1.65,2.846,2.505,5.518,2.505c2.651,0,4.488-0.705,5.557-2.127
	c1.049-1.422,1.645-4.448,1.645-9.354v-3.691h16.672v4.233c0,8.395-1.965,14.676-6.072,18.915
	C419.266,524.618,413.201,526.764,405.186,526.764L405.186,526.764z M412.773,467.591v-2.876c0-3.464-0.602-13.11-1.71-14.552
	c-1.048-1.48-2.933-2.23-5.41-2.23c-2.545,0-4.422,0.75-5.538,2.23c-1.107,1.441-1.71,11.088-1.71,14.552v2.876H412.773z
	 M350.762,526.973c-3.313,0-6.238-0.665-8.783-1.938c-2.498-1.213-4.896-3.092-7.113-5.759v6.528h-16.826V402.431h15.838v37.296
	c2.291-2.583,5.71-4.592,8.102-5.948c2.585-1.356,5.13-2.042,7.762-2.042c5.236,0,9.338,1.898,12.076,5.531
	c2.759,3.633,4.147,8.956,4.147,15.929v55.018c0,6.053-1.309,10.645-3.874,13.88C359.445,525.283,355.658,526.973,350.762,526.973
	L350.762,526.973z M350.274,454.109c0-2.857-2.077-5.029-3.187-6.549c-1.281-1.487-3.012-2.152-5.216-2.152
	c-1.236,0-2.372,0.254-3.567,0.815c-1.108,0.521-3.246,1.415-4.422,2.563v60.803c1.323,1.337,3.654,2.4,5.003,3.007
	c1.257,0.646,2.565,0.959,3.994,0.959c2.03,0,3.548-0.626,4.509-1.858c0.922-1.148,2.886-3.111,2.886-5.845V454.109z
	 M285.532,515.598c-3.079,3.339-6.267,6.992-9.62,8.766c-3.292,1.879-6.518,2.694-9.685,2.694c-3.841,0-6.752-1.233-8.697-3.776
	c-1.963-2.544-3.419-6.281-3.419-11.33v-78.068h16.138v72.303c0,1.982,0.368,3.404,1.047,4.324c0.729,0.854,1.858,1.33,3.42,1.33
	c1.195,0,3.76-0.58,5.645-1.813c1.877-1.148,4.596-2.694,6.153-4.449v-71.695h15.709v92.927h-16.691V515.598z M238.594,526.725
	h-16.031V417.961h-15.649v-15.53h47.839v15.53h-16.159V526.725z M310.179,324.037c-2.652,0-4.709-0.731-6.072-2.193
	c-1.456-1.441-2.158-3.508-2.158-6.204v-43.349c0-2.152,0.788-3.86,2.284-5.158c1.517-1.331,3.487-2.004,5.946-2.004
	c2.625,0,3.759,0.673,5.402,2.004c1.604,1.297,2.458,3.005,2.458,5.158v43.349c0,2.648-0.834,4.678-2.391,6.204
	C313.979,323.306,312.891,324.037,310.179,324.037L310.179,324.037z M310.179,324.037"/>
<ellipse fill="none" stroke="#BAB8B8" stroke-width="30" stroke-miterlimit="10" cx="306.5" cy="408.836" rx="280.5" ry="278.386"/>
</svg>
